<?xml version="1.0" encoding="UTF-8" standalone="no"?>
<!-- Created with Inkscape (http://www.inkscape.org/) -->

<svg
   xmlns:osb="http://www.openswatchbook.org/uri/2009/osb"
   xmlns:dc="http://purl.org/dc/elements/1.1/"
   xmlns:cc="http://creativecommons.org/ns#"
   xmlns:rdf="http://www.w3.org/1999/02/22-rdf-syntax-ns#"
   xmlns:svg="http://www.w3.org/2000/svg"
   xmlns="http://www.w3.org/2000/svg"
   xmlns:xlink="http://www.w3.org/1999/xlink"
   xmlns:sodipodi="http://sodipodi.sourceforge.net/DTD/sodipodi-0.dtd"
   xmlns:inkscape="http://www.inkscape.org/namespaces/inkscape"
   version="1.0"
   id="svg2"
   sodipodi:version="0.32"
   inkscape:version="0.91 r13725"
   sodipodi:docname="pycon-logo-text-as-path.svg"
   width="1645.6144pt"
   height="895.17688pt">
  <sodipodi:namedview
     inkscape:window-height="754"
     inkscape:window-width="1230"
     inkscape:pageshadow="2"
     inkscape:pageopacity="0.0"
     guidetolerance="10.0"
     gridtolerance="10.0"
     objecttolerance="10.0"
     borderopacity="1.0"
     bordercolor="#666666"
     pagecolor="#ffffff"
     id="base"
     inkscape:zoom="0.1767767"
     inkscape:cx="559.63936"
     inkscape:cy="538.24545"
     inkscape:window-x="49"
     inkscape:window-y="0"
     inkscape:current-layer="svg2"
     width="210mm"
     height="40mm"
     units="mm"
     showgrid="false"
     fit-margin-top="100"
     fit-margin-left="100"
     fit-margin-right="100"
     fit-margin-bottom="100"
     inkscape:window-maximized="0" />
  <metadata
     id="metadata371">
    <rdf:RDF>
      <cc:Work
         rdf:about="">
        <dc:format>image/svg+xml</dc:format>
        <dc:type
           rdf:resource="http://purl.org/dc/dcmitype/StillImage" />
        <dc:title></dc:title>
      </cc:Work>
    </rdf:RDF>
  </metadata>
  <defs
     id="defs4">
    <inkscape:path-effect
       effect="sketch"
       id="path-effect6082"
       is_visible="true"
       nbiter_approxstrokes="1"
       strokelength="104"
       strokelength_rdm="0.3;2147483646"
       strokeoverlap="0.3"
       strokeoverlap_rdm="0.3;2147483646"
       ends_tolerance="0.1;914560704"
       parallel_offset="5;367253501"
       tremble_size="5;2147483646"
       tremble_frequency="1"
       nbtangents="5"
       tgt_places_rdmness="0;2147483646"
       tgtscale="10"
       tgtlength="100"
       tgtlength_rdm="0.3;2147483646" />
    <linearGradient
       id="linearGradient4204"
       osb:paint="solid">
      <stop
         style="stop-color:#11457e;stop-opacity:1;"
         offset="0"
         id="stop4206" />
    </linearGradient>
    <linearGradient
       id="linearGradient2795">
      <stop
         style="stop-color:#b8b8b8;stop-opacity:0.49803922;"
         offset="0"
         id="stop2797" />
      <stop
         style="stop-color:#7f7f7f;stop-opacity:0;"
         offset="1"
         id="stop2799" />
    </linearGradient>
    <linearGradient
       id="linearGradient2787">
      <stop
         style="stop-color:#7f7f7f;stop-opacity:0.5;"
         offset="0"
         id="stop2789" />
      <stop
         style="stop-color:#7f7f7f;stop-opacity:0;"
         offset="1"
         id="stop2791" />
    </linearGradient>
    <linearGradient
       id="linearGradient3676">
      <stop
         style="stop-color:#b2b2b2;stop-opacity:0.5;"
         offset="0"
         id="stop3678" />
      <stop
         style="stop-color:#b3b3b3;stop-opacity:0;"
         offset="1"
         id="stop3680" />
    </linearGradient>
    <linearGradient
       id="linearGradient3236">
      <stop
         style="stop-color:#f4f4f4;stop-opacity:1"
         offset="0"
         id="stop3244" />
      <stop
         style="stop-color:white;stop-opacity:1"
         offset="1"
         id="stop3240" />
    </linearGradient>
    <linearGradient
       id="linearGradient4671">
      <stop
         style="stop-color:#ffd43b;stop-opacity:1;"
         offset="0"
         id="stop4673" />
      <stop
         style="stop-color:#ffe873;stop-opacity:1"
         offset="1"
         id="stop4675" />
    </linearGradient>
    <linearGradient
       id="linearGradient4689">
      <stop
         style="stop-color:#5a9fd4;stop-opacity:1;"
         offset="0"
         id="stop4691" />
      <stop
         style="stop-color:#306998;stop-opacity:1;"
         offset="1"
         id="stop4693" />
    </linearGradient>
    <linearGradient
       x1="224.23996"
       y1="144.75717"
       x2="-65.308502"
       y2="144.75717"
       id="linearGradient2987"
       xlink:href="#linearGradient4671"
       gradientUnits="userSpaceOnUse"
       gradientTransform="translate(100.2702,99.61116)" />
    <linearGradient
       x1="172.94208"
       y1="77.475983"
       x2="26.670298"
       y2="76.313133"
       id="linearGradient2990"
       xlink:href="#linearGradient4689"
       gradientUnits="userSpaceOnUse"
       gradientTransform="translate(100.2702,99.61116)" />
    <linearGradient
       inkscape:collect="always"
       xlink:href="#linearGradient4689"
       id="linearGradient2587"
       gradientUnits="userSpaceOnUse"
       gradientTransform="translate(100.2702,99.61116)"
       x1="172.94208"
       y1="77.475983"
       x2="26.670298"
       y2="76.313133" />
    <linearGradient
       inkscape:collect="always"
       xlink:href="#linearGradient4671"
       id="linearGradient2589"
       gradientUnits="userSpaceOnUse"
       gradientTransform="translate(100.2702,99.61116)"
       x1="224.23996"
       y1="144.75717"
       x2="-65.308502"
       y2="144.75717" />
    <linearGradient
       inkscape:collect="always"
       xlink:href="#linearGradient4689"
       id="linearGradient2248"
       gradientUnits="userSpaceOnUse"
       gradientTransform="translate(100.2702,99.61116)"
       x1="172.94208"
       y1="77.475983"
       x2="26.670298"
       y2="76.313133" />
    <linearGradient
       inkscape:collect="always"
       xlink:href="#linearGradient4671"
       id="linearGradient2250"
       gradientUnits="userSpaceOnUse"
       gradientTransform="translate(100.2702,99.61116)"
       x1="224.23996"
       y1="144.75717"
       x2="-65.308502"
       y2="144.75717" />
    <linearGradient
       inkscape:collect="always"
       xlink:href="#linearGradient4671"
       id="linearGradient2255"
       gradientUnits="userSpaceOnUse"
       gradientTransform="matrix(0.562541,0,0,0.567972,-11.5974,-7.60954)"
       x1="224.23996"
       y1="144.75717"
       x2="-65.308502"
       y2="144.75717" />
    <linearGradient
       inkscape:collect="always"
       xlink:href="#linearGradient4689"
       id="linearGradient2258"
       gradientUnits="userSpaceOnUse"
       gradientTransform="matrix(0.562541,0,0,0.567972,-11.5974,-7.60954)"
       x1="172.94208"
       y1="76.176224"
       x2="26.670298"
       y2="76.313133" />
    <radialGradient
       inkscape:collect="always"
       xlink:href="#linearGradient2795"
       id="radialGradient2801"
       cx="61.518883"
       cy="132.28575"
       fx="61.518883"
       fy="132.28575"
       r="29.036913"
       gradientTransform="matrix(1,0,0,0.177966,0,108.7434)"
       gradientUnits="userSpaceOnUse" />
    <filter
       style="color-interpolation-filters:sRGB"
       id="filter6428"
       inkscape:label="filter1" />
    <filter
       y="-0.25"
       height="1.5"
       x="-0.25"
       width="1.5"
       inkscape:menu-tooltip="Creates colorizable blotches which smoothly flow over the edges of the lines at their crossings"
       inkscape:menu="Protrusions"
       inkscape:label="Chewing Gum"
       style="color-interpolation-filters:sRGB"
       id="filter6430">
      <feTurbulence
         type="fractalNoise"
         baseFrequency="0.04"
         numOctaves="5"
         seed="0"
         result="result4"
         id="feTurbulence6432" />
      <feDisplacementMap
         in="SourceGraphic"
         in2="result4"
         yChannelSelector="G"
         xChannelSelector="R"
         scale="10"
         result="result3"
         id="feDisplacementMap6434" />
      <feDiffuseLighting
         lighting-color="#e9e6d7"
         diffuseConstant="1"
         surfaceScale="2"
         result="result1"
         in="result4"
         id="feDiffuseLighting6436">
        <feDistantLight
           azimuth="235"
           elevation="40"
           id="feDistantLight6438" />
      </feDiffuseLighting>
      <feComposite
         operator="in"
         in="result3"
         in2="result1"
         result="result2"
         id="feComposite6440" />
      <feComposite
         in2="result1"
         result="result5"
         operator="arithmetic"
         k1="1.7"
         id="feComposite6442"
         k2="0"
         k3="0"
         k4="0" />
      <feBlend
         in="result5"
         in2="result3"
         mode="normal"
         id="feBlend6444"
         result="fbSourceGraphic" />
      <feColorMatrix
         result="fbSourceGraphicAlpha"
         in="fbSourceGraphic"
         values="0 0 0 -1 0 0 0 0 -1 0 0 0 0 -1 0 0 0 0 1 0"
         id="feColorMatrix7124" />
      <feFlood
         id="feFlood7126"
         result="result4"
         flood-color="rgb(253,112,174)"
         flood-opacity="1"
         in="fbSourceGraphic" />
      <feGaussianBlur
         id="feGaussianBlur7128"
         result="result1"
         in="fbSourceGraphicAlpha"
         stdDeviation="15" />
      <feComposite
         id="feComposite7130"
         in2="result4"
         in="result1"
         result="result3"
         k4="-2"
         k2="4"
         operator="arithmetic"
         k1="0"
         k3="0" />
      <feColorMatrix
         id="feColorMatrix7132"
         result="result2"
         values="1 0 0 0 0 0 1 0 0 0 0 0 1 0 0 0 0 0 10 -3" />
      <feComposite
         id="feComposite7134"
         in2="result2"
         operator="in"
         in="result4"
         result="fbSourceGraphic" />
      <feBlend
         id="feBlend7136"
         in2="fbSourceGraphic"
         in="fbSourceGraphic"
         mode="normal"
         result="fbSourceGraphic" />
      <feColorMatrix
         result="fbSourceGraphicAlpha"
         in="fbSourceGraphic"
         values="0 0 0 -1 0 0 0 0 -1 0 0 0 0 -1 0 0 0 0 1 0"
         id="feColorMatrix7138" />
      <feFlood
         id="feFlood7140"
         result="result4"
         flood-color="rgb(253,112,174)"
         flood-opacity="1"
         in="fbSourceGraphic" />
      <feGaussianBlur
         id="feGaussianBlur7142"
         result="result1"
         in="fbSourceGraphicAlpha"
         stdDeviation="15" />
      <feComposite
         id="feComposite7144"
         in2="result4"
         in="result1"
         result="result3"
         k4="-2"
         k2="4"
         operator="arithmetic"
         k1="0"
         k3="0" />
      <feColorMatrix
         id="feColorMatrix7146"
         result="result2"
         values="1 0 0 0 0 0 1 0 0 0 0 0 1 0 0 0 0 0 10 -3" />
      <feComposite
         id="feComposite7148"
         in2="result2"
         operator="in"
         in="result4"
         result="fbSourceGraphic" />
      <feBlend
         id="feBlend7150"
         in2="fbSourceGraphic"
         in="fbSourceGraphic"
         mode="normal"
         result="result5" />
    </filter>
    <filter
       y="-0.15000001"
       height="1.3"
       x="-0.15000001"
       width="1.3"
       inkscape:menu-tooltip="Aquarelle paper effect which can be used for pictures as for objects"
       inkscape:menu="Textures"
       inkscape:label="Rough Paper"
       style="color-interpolation-filters:sRGB"
       id="filter6446">
      <feTurbulence
         type="fractalNoise"
         baseFrequency="0.04"
         numOctaves="5"
         seed="0"
         result="result4"
         id="feTurbulence6448" />
      <feDisplacementMap
         in="SourceGraphic"
         in2="result4"
         yChannelSelector="G"
         xChannelSelector="R"
         scale="10"
         result="result3"
         id="feDisplacementMap6450" />
      <feDiffuseLighting
         lighting-color="#e9e6d7"
         diffuseConstant="1"
         surfaceScale="2"
         result="result1"
         in="result4"
         id="feDiffuseLighting6452">
        <feDistantLight
           azimuth="235"
           elevation="40"
           id="feDistantLight6454" />
      </feDiffuseLighting>
      <feComposite
         operator="in"
         in="result3"
         in2="result1"
         result="result2"
         id="feComposite6456" />
      <feComposite
         in2="result1"
         result="result5"
         operator="arithmetic"
         k1="1.7"
         id="feComposite6458"
         k2="0"
         k3="0"
         k4="0" />
      <feBlend
         in="result5"
         in2="result3"
         mode="normal"
         id="feBlend6460" />
    </filter>
  </defs>
  <g
     id="g4255">
    <path
       inkscape:connector-curvature="0"
       id="path5662"
       d="m 439.3545,144.84767 c -3.185,0.82699 -6.3893,0.42294 -9.5335,1.29045 -3.1737,0.87562 -5.7081,3.35748 -8.8365,4.27254 -3.1616,0.92476 -6.0604,-0.11482 -9.1719,0.8482 -3.1491,0.97465 -5.4878,2.42225 -8.5818,3.43401 -3.1352,1.02527 -7.7426,3.36595 -10.8172,4.42725 -3.1206,1.07715 -6.3711,0.85227 -9.4252,1.96434 -3.1048,1.13045 -6.3469,2.75293 -9.3784,3.91711 -3.0876,1.18567 -4.2656,1.99372 -7.2727,3.2119 -3.0687,1.24314 -7.9275,2.7061 -10.9074,3.98045 -3.0477,1.30334 -5.9675,2.4294 -8.9171,3.76258 0,0 1.5693,1.20307 1.5693,1.20307 -3.0283,1.36783 -7.6172,2.2737 -10.4561,3.64556 -2.9973,1.44839 -4.3173,1.84103 -7.108,3.29768 -2.9565,1.54324 -6.5204,4.88327 -9.2502,6.4402 -2.9018,1.65488 -4.8722,3.04993 -7.5244,4.72563 -2.8282,1.78692 -5.7884,1.95172 -8.3407,3.76876 -2.7283,1.94237 -5.3355,5.73856 -7.7578,7.72318 -2.5894,2.1214 -4.5914,2.74054 -6.8429,4.91988 -2.4,2.32306 -5.8775,6.17095 -7.9075,8.57145 -2.1453,2.53684 -4.5677,3.91041 -6.3167,6.54757 -1.8195,2.74359 -1.8016,5.13566 -3.2111,8.00348 -1.4559,2.96239 -4.1849,7.27184 -5.1983,10.323 -1.0283,3.09572 -0.6326,4.74357 -1.244,7.9378 -0.607,3.17091 -1.504,8.31311 -1.7385,11.58815 -0.2285,3.19667 -1.1804,5.33694 -1.0899,8.63938 0.087,3.19074 0.3275,6.73643 0.6803,10.0319 0.339,3.16856 1.3988,5.26728 1.9543,8.53795 0.5334,3.14158 1.6293,8.2559 2.3367,11.49642 0.6799,3.11562 1.3859,6.28136 2.2037,9.49266 0,0 0.2255,1.73952 1.6469,7.32038 0.6693,2.62777 1.2437,7.04027 2.1068,10.42941 0.7255,2.84881 1.4764,4.86603 2.2885,8.05464 0.7516,2.9511 1.8969,5.64161 2.6845,8.73453 0.7698,3.02222 1.3394,7.65073 2.1091,10.67296 0.7876,3.0926 1.455,6.01727 2.2065,8.9681 0.8121,3.18867 2.6307,4.70222 3.3562,7.55114 0.8631,3.38912 1.1446,6.49185 1.8138,9.11965 1.4213,5.58072 2.8814,9.09779 2.8814,9.09779 0,0 2.3503,-0.53352 8.2657,-2.04005 2.6359,-0.67131 6.2799,0.12216 9.8322,-0.78255 2.8512,-0.72617 5.4049,-1.93617 8.7544,-2.78921 2.9402,-0.74883 7.0676,-1.1054 10.3323,-1.93685 2.9901,-0.76153 5.1877,-3.21164 8.4052,-4.03107 3.0225,-0.76978 5.8778,-0.89445 9.0643,-1.70599 3.0458,-0.7757 7.7403,-0.75012 10.9043,-1.55591 3.0638,-0.78032 6.5872,-2.52408 9.7332,-3.32532 3.0796,-0.78428 4.5996,-0.63978 7.7313,-1.43734 3.0926,-0.78763 7.7823,-2.59538 10.9003,-3.38947 3.1051,-0.7908 6.1766,-1.71851 9.2817,-2.5093 3.1176,-0.79401 6.2917,-1.24337 9.3839,-2.03092 3.1317,-0.79756 4.5477,-2.30487 7.6272,-3.08915 3.1462,-0.80125 7.3241,0.0568 10.3881,-0.72348 3.1637,-0.80575 6.5416,-3.30109 9.5873,-4.07674 3.1863,-0.8115 4.8051,-0.31532 7.8274,-1.08506 3.2175,-0.81943 6.6067,-1.31519 9.5968,-2.07672 3.2653,-0.83159 5.994,-2.19683 8.9348,-2.9458 3.3498,-0.85312 7.2319,-2.86907 10.0835,-3.59532 3.552,-0.90462 6.1217,-1.35854 8.7575,-2.02979 5.9151,-1.50649 9.1625,-2.10015 9.1625,-2.10015 0,0 2.2794,3.6513 2.9331,6.21808 0.6537,2.56677 -0.1442,3.75809 -0.1442,3.75809 0,0 -1.9505,2.20318 -7.9207,3.72365 -2.6667,0.67914 -7.3513,0.17871 -10.9394,1.09253 -2.8846,0.73468 -6.1676,1.73699 -9.551,2.59869 -2.975,0.75766 -4.2661,1.70875 -7.5637,2.54857 -3.0254,0.77051 -6.4131,1.16467 -9.6626,1.99223 -3.0579,0.77881 -7.6825,2.93054 -10.8997,3.74988 -3.0825,0.78505 -4.595,1.41542 -7.7897,2.22903 -3.101,0.78977 -6.2734,0.57937 -9.4493,1.38819 -3.1171,0.79387 -7.6953,1.30866 -10.8554,2.11347 -3.1319,0.79764 -4.7446,2.1011 -7.8906,2.90231 -3.1459,0.80122 -6.9145,0.9691 -10.0466,1.76677 -3.1599,0.80476 -6.4366,1.57002 -9.5536,2.36385 -3.1755,0.80876 -6.2155,1.63773 -9.3164,2.42746 -3.194,0.81346 -5.6832,2.8501 -8.7652,3.63501 -3.2175,0.81944 -8.0251,2.05622 -11.0832,2.83507 -3.2492,0.82752 -6.6355,1.2651 -9.6608,2.03558 -3.2972,0.83974 -5.89,0.36371 -8.8648,1.12134 -3.3829,0.86158 -5.2191,2.93603 -8.1036,3.67068 -3.5878,0.91372 -8.3596,2.129 -11.0262,2.80814 -5.9712,1.52071 -7.7788,1.84711 -7.7788,1.84711 0,0 -5.2654,-0.004 -10.8591,1.42002 -2.6638,0.67842 -4.6061,1.31775 -8.0071,2.1839 -2.8919,0.7365 -6.055,1.49142 -9.2504,2.30524 -3.0027,0.76472 -5.941,3.28724 -9.0311,4.07423 -3.0902,0.78701 -7.7492,0.74559 -10.7519,1.51031 -3.1956,0.81387 -4.2907,1.56644 -7.1829,2.30302 -3.4014,0.86625 -6.9584,2.52894 -9.6225,3.20743 -5.5933,1.42449 -9.1525,0.70337 -9.1525,0.70337 -3.1839,0.81086 -7.61275,1.81018 -10.70206,2.81857 -3.12107,1.01907 -6.2893,2.24766 -9.30481,3.46423 -3.04256,1.22761 -4.54093,2.44078 -7.46681,3.86514 -2.94737,1.43477 -5.5897,3.33736 -8.4092,4.96737 -2.83528,1.63909 -5.66956,4.22284 -8.36593,6.05479 -2.70626,1.8386 -7.14701,3.63438 -9.70373,5.66259 -2.56023,2.03107 -4.03681,2.80209 -6.43739,5.01866 -2.39798,2.21423 -3.8055,5.73058 -6.03442,8.12544 -2.2209,2.38621 -5.3417,5.65009 -7.38503,8.21104 -2.03041,2.54474 -4.03681,3.17494 -5.88247,5.88773 -1.82858,2.68776 -2.83605,5.69754 -4.47402,8.54588 -1.61817,2.81383 -4.77505,6.6695 -6.19827,9.63578 -1.40197,2.92233 -1.07196,4.95434 -2.27624,8.02054 -1.18352,3.0134 -2.77678,5.86171 -3.76117,9.01035 -0.96497,3.08616 -1.23975,6.55309 -2.00561,9.76551 -0.7492,3.14195 -1.20625,6.66192 -1.75785,9.92133 -0.53858,3.18201 -1.14199,6.14064 -1.48562,9.43129 -0.33495,3.20755 -0.50866,7.64002 -0.65224,10.94791 -0.13975,3.22023 -1.8722,5.40521 -1.82488,8.71777 0.0418,3.2513 1.77987,7.5424 1.85782,10.6946 0.0803,3.2492 0.34253,5.827 0.46375,8.9791 0.12482,3.2458 -1.23741,5.652 -1.06659,8.8038 0.17568,3.241 -0.0824,7.5455 0.14481,10.6967 0.2332,3.2336 0.56229,5.7371 0.85294,8.8867 0.29741,3.2237 0.55957,7.0984 0.92063,10.2453 0.3684,3.2113 2.07408,5.1855 2.51229,8.3288 0.44533,3.1948 0.55431,6.3004 1.07549,9.4377 0.52754,3.1747 2.02817,6.876 2.63692,10.005 0.61343,3.1511 1.19101,6.1515 1.89136,9.2693 0.70167,3.1243 1.09611,7.7001 1.88913,10.8045 0.78814,3.0947 2.08775,4.9147 2.97285,8.0026 0.87805,3.0623 1.86501,6.6681 2.8398,9.7375 0.96201,3.0289 1.79068,6.4952 2.85098,9.5433 1.04207,2.9956 1.77383,6.3054 2.9144,9.3316 1.11644,2.9622 2.06352,6.0209 3.27788,9.0241 1.18496,2.9304 1.92458,5.8746 3.20592,8.8543 1.24738,2.9008 2.57558,3.8865 3.9172,6.8438 1.30338,2.8728 2.04868,6.1915 3.44375,9.1266 1.35357,2.848 4.57737,6.3951 6.0197,9.3096 1.39789,2.8248 2.70425,6.0829 4.18768,8.9776 1.43712,2.8044 2.42611,6.0622 3.9455,8.9389 1.52375,2.8911 2.9009,3.8143 4.51123,6.5926 1.63963,2.8289 4.12459,6.7697 5.85462,9.4733 1.76316,2.7552 3.44598,4.7355 5.30368,7.3516 1.89406,2.6675 2.1903,5.1666 4.18334,7.68 2.03288,2.5636 4.6945,6.636 6.83115,9.0293 2.17785,2.4396 5.0987,2.9287 7.38515,5.1809 2.32848,2.2937 4.77164,4.5212 7.21355,6.6095 2.48069,2.1211 5.27352,5.6012 7.87242,7.4986 2.6306,1.9209 3.6511,2.6353 6.4037,4.3145 2.6693,1.6284 7.2666,3.7853 10.0506,5.1648 2.7953,1.3852 5.5114,2.9918 8.4166,4.1155 2.9017,1.1224 5.0625,0.5812 8.0682,1.4318 2.9845,0.8449 4.9709,2.6784 8.0524,3.2452 3.0409,0.5591 8.1184,0.7637 11.2485,1.0418 3.0709,0.2728 4.4745,-0.2048 7.6261,-0.2121 3.0753,-0.01 7.2888,1.477 10.4362,1.1944 3.0558,-0.2743 5.6699,-2.6004 8.7893,-3.1428 3.0175,-0.5245 7.1025,0.1271 10.1756,-0.6556 0,0 3.0395,-2.1737 8.7199,-3.6204 2.7052,-0.6889 6.4863,-0.2755 9.9401,-1.1552 2.9368,-0.7479 4.6658,-2.7215 7.9107,-3.5479 3.0494,-0.7767 6.3909,0.2855 9.529,-0.5136 3.1381,-0.7992 5.8574,-3.3118 8.9068,-4.0884 3.2451,-0.8265 8.0073,-1.2063 10.9444,-1.9543 3.4542,-0.8797 4.7585,-1.77 7.4639,-2.459 5.6802,-1.4466 11.2127,-2.2103 11.2127,-2.2103 0,0 -2.5175,-2.6666 -4.0367,-8.632 -0.7089,-2.783 -1.4345,-7.7287 -2.3558,-11.3467 -0.7678,-3.0147 -0.2486,-5.9181 -1.1162,-9.3247 -0.7941,-3.118 -2.6929,-6.8203 -3.5357,-10.1298 -0.8114,-3.1857 -2.4198,-5.5101 -3.246,-8.7543 -0.8262,-3.2439 0.2724,-6.0472 -0.5389,-9.2328 -0.8429,-3.3099 -3.5698,-7.168 -4.364,-10.2864 -0.8675,-3.4064 -0.7582,-7.4313 -1.526,-10.4458 -0.9213,-3.6175 -0.7169,-5.8932 -1.4256,-8.6761 -1.5192,-5.9652 -3.8947,-10.5759 -3.8947,-10.5759 -0.8048,-3.1604 -1.4816,-4.5417 -1.9927,-7.7318 -0.5153,-3.215 -1.4342,-7.313 -1.6603,-10.5411 -0.2275,-3.2436 0.5874,-5.5153 0.6427,-8.7547 0.055,-3.2481 1.1679,-8.0663 1.4981,-11.2925 0.3302,-3.229 0.1195,-6.8531 0.7153,-10.0426 0.5961,-3.1894 0.8216,-6.2968 1.6739,-9.4294 0.8516,-3.13 1.9875,-6.2744 3.0856,-9.3301 1.0968,-3.0522 2.7917,-6.0456 4.1251,-9.0063 1.332,-2.9572 1.9415,-5.729 3.5001,-8.5775 1.557,-2.8454 2.8345,-4.5009 4.6084,-7.2203 1.772,-2.7169 4.433,-4.6839 6.4123,-7.2577 1.9775,-2.571 3.4076,-5.4777 5.5824,-7.8889 2.1723,-2.4082 5.3359,-4.3093 7.6961,-6.5407 2.3556,-2.2272 4.5947,-4.3682 7.1285,-6.4023 2.5263,-2.0282 4.8741,-4.0294 7.5683,-5.8485 2.683,-1.8115 6.8451,-4.4606 9.6855,-6.048 2.823,-1.5776 5.6748,-3.3168 8.6444,-4.6567 2.9433,-1.3281 4.2353,-2.8762 7.3143,-3.9547 3.0431,-1.066 7.5047,-0.5518 10.6721,-1.3585 0,0 3.57,-1.019 9.4786,-2.5238 2.6328,-0.6705 4.8654,-3.1171 8.4138,-4.0207 2.8479,-0.7254 6.5667,0.3616 9.9121,-0.4904 2.937,-0.7479 6.2308,-3.2011 9.4916,-4.0316 2.9866,-0.7607 6.4451,-0.9501 9.659,-1.7686 3.0188,-0.7689 4.6737,-0.5082 7.8564,-1.3187 3.0424,-0.7748 6.8391,-1.4751 9.9995,-2.2799 3.0603,-0.7794 6.4526,-1.6827 9.5951,-2.4829 3.0758,-0.7834 6.5951,-2.8471 9.7229,-3.6436 3.0891,-0.7867 6.2674,-1.3506 9.3817,-2.14382 3.1014,-0.78975 4.3914,-1.95803 7.4929,-2.74789 3.1138,-0.793 6.0599,-0.91239 9.1485,-1.699 3.128,-0.79657 8.1761,-2.03479 11.2519,-2.81814 3.1425,-0.80034 5.3715,-0.26308 8.4319,-1.04248 3.1601,-0.80481 5.3076,-2.14789 8.3498,-2.92265 3.1824,-0.81052 6.7606,-2.95578 9.7793,-3.72459 3.2138,-0.81849 7.5584,-0.11223 10.5451,-0.8729 3.2613,-0.83058 6.5688,-2.19414 9.5061,-2.9422 3.3458,-0.85212 5.7446,-0.70783 8.5928,-1.43321 3.5478,-0.90354 7.3894,-2.53962 10.022,-3.21006 5.9083,-1.50474 9.2989,-2.29391 9.2989,-2.29391 3.1137,-0.79301 6.0927,-2.32169 9.0663,-3.36469 3.0275,-1.06173 4.7211,-0.90158 7.5952,-2.20758 2.916,-1.32491 5.479,-2.92327 8.2288,-4.48401 2.7813,-1.57855 5.5939,-3.1938 8.1965,-4.99741 2.6248,-1.81896 5.2371,-3.7067 7.6714,-5.73801 2.4491,-2.04388 4.3343,-5.57247 6.5815,-7.81456 2.256,-2.2508 5.8378,-4.96439 7.8811,-7.39793 2.0473,-2.43851 3.4304,-3.12446 5.2549,-5.72924 1.8252,-2.60582 2.6147,-6.66244 4.2077,-9.41747 1.5911,-2.75221 4.6831,-4.47756 6.0332,-7.36155 1.3467,-2.87728 2.8824,-6.58184 3.9798,-9.57312 1.0936,-2.9809 0.5191,-5.13257 1.3559,-8.20986 0.8326,-3.06133 1.9464,-8.0006 2.516,-11.14071 0.5657,-3.11887 0.5641,-6.10536 0.8613,-9.28552 0.2945,-3.15252 1.9194,-5.06222 1.9418,-8.25917 0.022,-3.16301 0.013,-6.78882 -0.2402,-9.97994 -0.2495,-3.14921 -2.3497,-5.60485 -2.8751,-8.76653 -0.517,-3.11268 -1.453,-7.02511 -2.2452,-10.1356 0,0 0.6228,-4.18967 -0.8812,-10.09482 -0.6717,-2.63751 -2.7315,-5.54697 -3.6353,-9.09577 -0.7268,-2.85347 -0.1452,-6.1232 -0.9974,-9.46973 -0.7495,-2.94254 -1.2813,-5.75658 -2.1119,-9.01823 -0.7621,-2.9924 -2.0392,-4.69354 -2.8578,-7.90755 -0.7702,-3.0246 -1.8304,-6.0662 -2.6408,-9.24829 -0.7766,-3.04896 -1.3576,-6.21115 -2.1624,-9.3711 -0.7811,-3.06721 -2.4726,-7.94901 -3.2726,-11.09024 -0.7853,-3.08311 -0.1227,-5.82912 -0.9187,-8.95472 -0.7889,-3.09778 -3.2275,-6.4044 -4.02,-9.51603 -0.7924,-3.11174 -1.4538,-4.78674 -2.2428,-7.88461 -0.7959,-3.12551 -0.2038,-6.36508 -0.989,-9.4482 -0.7999,-3.14095 -2.7328,-7.83139 -3.5139,-10.89841 -0.8046,-3.15928 -2.147,-5.71309 -2.9233,-8.76147 -0.8105,-3.18238 -1.6703,-6.00235 -2.4407,-9.02716 -0.8185,-3.21382 -1.5985,-6.0726 -2.3605,-9.06487 -0.8306,-3.26136 -1.1675,-7.40967 -1.9169,-10.35205 -0.8521,-3.34612 -1.8257,-6.32571 -2.5524,-9.17888 -0.9038,-3.54868 -1.9507,-5.67377 -2.6224,-8.3113 -1.5041,-5.90604 -0.4656,-9.92764 -0.4656,-9.92764 -0.8292,-3.25587 -2.2593,-6.98774 -3.3674,-10.06746 -1.1344,-3.15245 -2.2265,-6.07679 -3.6357,-9.04142 -1.4339,-3.0168 -4.2004,-4.34208 -5.9004,-7.16097 -1.7202,-2.85241 -2.0689,-6.62156 -4.0423,-9.26778 -1.9864,-2.66376 -5.502,-4.15198 -7.7253,-6.60319 -2.2277,-2.45609 -3.1647,-5.54747 -5.6103,-7.78649 -2.4416,-2.23537 -4.9892,-4.34882 -7.6283,-6.36411 -2.6275,-2.00647 -5.3437,-4.23849 -8.1475,-6.0232 -2.787,-1.7742 -6.4276,-2.30499 -9.3695,-3.85647 -2.921,-1.54051 -5.8077,-3.00018 -8.8626,-4.31767 -3.0322,-1.30782 -6.3996,-4.4523 -9.5453,-5.53697 -3.1217,-1.07638 -7.1968,-1.56731 -10.4122,-2.42063 -3.1922,-0.84718 -6.1038,-0.20904 -9.3707,-0.83312 -3.2451,-0.61987 -5.854,-2.96977 -9.1556,-3.36633 -3.2808,-0.39409 -5.9492,-0.31935 -9.2688,-0.48978 -3.3012,-0.16945 -7.9969,1.20443 -11.3199,1.25926 -3.306,0.0545 -6.5129,-1.44554 -9.8239,-1.16599 0,0 0.5833,-0.12926 0.5833,-0.12926 0,0 0.7503,1.54677 0.7503,1.54677 -3.2244,0.27287 -7.4299,-0.96704 -10.659,-0.63878 -3.2215,0.32749 -7.3038,1.62839 -10.5265,2.00949 -3.2168,0.38041 -4.8752,7.7e-4 -8.0894,0.43304 -3.2119,0.43192 -6.6901,0.76225 -9.8955,1.2444 -3.2063,0.48229 -6.9938,2.90426 -10.1899,3.43527 -3.2001,0.53163 -5.129,-0.11909 -8.3151,0.45984 -3.1933,0.58023 -8.341,1.30487 -11.5166,1.93102 -3.1859,0.6282 -6.2848,1.8128 -9.449,2.48565 -3.1782,0.67579 -6.1421,0.26646 -9.2947,0.9857 -3.1698,0.72317 -6.5725,1.8876 -9.7124,2.65308 -3.1601,0.77035 -4.4705,1.35408 -7.5963,2.16564 0,0 0.1079,0.7095 0.1079,0.7095 m 3.1581,13.42557 c 3.051,-0.79206 5.706,-1.62486 8.791,-2.37683 3.0641,-0.74692 5.4396,0.16477 8.5331,-0.54088 3.0773,-0.70199 6.4113,-1.17135 9.5135,-1.8309 3.0891,-0.65677 5.7648,-2.45349 8.8745,-3.06666 3.0997,-0.61121 6.5569,-1.68877 9.6732,-2.25519 3.1107,-0.56535 5.9508,-0.7836 9.074,-1.30273 3.1204,-0.51862 6.1772,-0.22563 9.3061,-0.69661 3.1297,-0.4711 6.3202,-0.77961 9.4547,-1.20151 3.1383,-0.42242 7.5261,-2.20826 10.6651,-2.5798 3.1461,-0.3724 5.9323,1.21851 9.075,0.89876 3.1536,-0.32085 5.3283,-1.41441 8.4744,-1.68067 3.2909,-0.27782 8.5579,-0.61802 11.8284,-0.65292 3.3028,-0.0352 5.492,-0.96077 8.7551,-0.75273 3.2976,0.21025 5.9372,0.85518 9.1748,1.30931 3.2731,0.45907 6.7609,0.84772 9.9527,1.55126 3.2283,0.71155 6.1765,1.72282 9.3008,2.67953 3.1615,0.96808 6.3547,1.97927 9.3882,3.19327 3.0694,1.22831 7.469,2.73562 10.3852,4.21036 2.9491,1.49149 5.6712,2.96362 8.4409,4.70166 2.7965,1.75513 5.8355,4.18223 8.4251,6.18315 2.609,2.01597 3.7521,5.30744 6.1267,7.56717 2.3839,2.26847 4.904,2.73782 7.027,5.24611 2.1198,2.50429 3.8594,7.05377 5.6945,9.79134 1.8206,2.7158 3.7614,5.60845 5.2779,8.54809 1.4933,2.89494 3.8339,4.46986 5.0091,7.57639 1.1481,3.03453 0.4211,6.01645 1.2441,9.24777 0,0 0.7064,3.77969 2.2103,9.68482 0.6717,2.63755 2.9935,6.82896 3.8973,10.37783 0.7267,2.85341 1.9358,4.85351 2.7881,8.19997 0.7494,2.94259 -0.2185,5.74109 0.6122,9.0027 0.7621,2.99245 1.4143,7.0458 2.2328,10.25982 0.7704,3.02459 1.6805,6.36581 2.491,9.54798 0.7764,3.04897 2.8697,6.47566 3.6744,9.63552 0.7812,3.0672 1.3093,6.27654 2.1093,9.41778 0.7852,3.08311 2.1234,5.87135 2.9195,8.99706 0.789,3.09776 1.5386,6.25584 2.3311,9.36749 0.7925,3.11174 -0.13,5.51461 0.6589,8.61248 0.7961,3.12551 3.4003,5.6567 4.1856,8.73971 0.7999,3.14104 0.6797,7.83574 1.4608,10.90286 0.8046,3.15928 1.7253,4.2745 2.5016,7.32287 0.8105,3.18247 0.8493,6.60881 1.6196,9.63362 0.8185,3.2138 3.0783,6.34 3.8404,9.33229 0.8307,3.26135 1.8487,7.32676 2.5981,10.26911 0.8521,3.34614 1.5044,6.76749 2.231,9.62066 0.9038,3.54873 1.8769,6.00069 2.5486,8.6382 1.5042,5.90612 0.3802,9.50388 0.3802,9.50388 0.822,3.22729 1.6757,5.77535 2.1596,8.99915 0.4933,3.28721 0.6301,7.38594 0.7838,10.64809 0.1562,3.31449 0.2348,6.87013 0.052,10.13632 -0.1845,3.30754 -0.6542,6.04938 -1.173,9.28411 -0.5237,3.26603 -1.1896,6.32356 -2.0409,9.49151 -0.8573,3.19067 -1.8711,6.81184 -3.0473,9.8784 -1.1818,3.08146 -1.7584,4.85839 -3.2484,7.7896 -1.4939,2.93881 -2.1541,6.14789 -3.944,8.91039 -1.7903,2.76339 -5.0474,6.90173 -7.1201,9.46344 -2.0686,2.55673 -4.5286,4.77188 -6.8646,7.10258 -2.3245,2.3192 -4.0756,4.91007 -6.6513,6.9806 -2.555,2.0538 -6.1353,2.91676 -8.9239,4.70176 -2.7555,1.76359 -3.9212,4.17027 -6.8921,5.64801 -2.9227,1.45381 -7.6283,2.25241 -10.7473,3.40709 -3.0541,1.13074 -4.2453,2.14227 -7.476,2.96505 0,0 -3.4733,1.06486 -9.382,2.56969 -2.6327,0.67048 -6.2231,1.93426 -9.7712,2.8379 -2.848,0.72534 -7.2589,0.0928 -10.6044,0.94482 -2.9368,0.74796 -6.0099,2.65764 -9.2707,3.48809 -2.9865,0.76063 -6.1309,0.42592 -9.3446,1.24437 -3.0189,0.76885 -5.4437,1.11139 -8.6264,1.92197 -3.0423,0.77481 -5.6168,1.62707 -8.7771,2.43195 -3.0603,0.7794 -7.3354,1.88475 -10.4778,2.68508 -3.0759,0.78336 -4.7507,2.95662 -7.8788,3.75327 -3.089,0.7867 -6.0336,0.21681 -9.148,1.00999 -3.1014,0.78983 -7.6423,1.39463 -10.7437,2.18449 -3.1139,0.79307 -5.3488,1.39422 -8.4374,2.18083 -3.128,0.79664 -7.3484,3.06103 -10.4242,3.84437 -3.1426,0.80037 -4.8151,1.91305 -7.8754,2.69245 -3.1602,0.80484 -7.7662,0.39593 -10.8082,1.17069 -3.1825,0.81051 -6.2228,2.49578 -9.2415,3.26467 -3.2137,0.81848 -4.5334,1.45718 -7.5201,2.21779 -3.2614,0.83064 -8.2219,0.85255 -11.1594,1.6007 -3.3457,0.852 -6.5471,2.1364 -9.3953,2.8618 -3.5478,0.9036 -4.6822,1.5357 -7.3147,2.2062 -5.9084,1.5046 -10.5274,3.4317 -10.5274,3.4317 -3.2341,0.8237 -5.2141,0.5839 -8.3321,1.6415 -3.1565,1.0707 -6.7166,1.6057 -9.7473,2.9036 -3.0602,1.3104 -7.31,4.2656 -10.235,5.7946 -2.9469,1.5406 -4.5924,1.6426 -7.3949,3.3918 -2.8188,1.7595 -5.5338,5.35 -8.199,7.307 -2.6764,1.9651 -6.7885,3.0652 -9.3027,5.216 -2.5216,2.1572 -2.9646,4.4525 -5.3154,6.7825 -2.3565,2.3354 -4.9024,4.118 -7.0797,6.6131 -2.1804,2.4988 -3.9906,5.7518 -5.9838,8.3967 -1.9959,2.6483 -5.5238,6.1627 -7.3242,8.9435 -1.8019,2.7831 -2.191,4.1192 -3.7895,7.0208 -1.5997,2.9039 -4.0785,7.5492 -5.4668,10.5576 -1.3889,3.0097 -2.8259,6.005 -3.9955,9.1052 -1.1699,3.1009 -1.7407,6.3511 -2.6836,9.5284 -0.9424,3.1764 -2.1939,6.309 -2.9017,9.5476 -0.7071,3.2358 0.011,5.1681 -0.4569,8.4519 -0.4644,3.2779 -0.7574,7.2596 -0.9729,10.5711 -0.215,3.3017 -0.5814,5.6127 -0.5415,8.9338 0.04,3.3048 -1.3286,6.8164 -1.0289,10.1266 0.2976,3.2887 1.869,6.1482 2.4305,9.4289 0.5563,3.2503 1.9357,7.6007 2.7582,10.8298 0,0 0.8388,3.7523 2.2641,9.3487 0.6711,2.6351 0.903,4.4283 1.7685,7.827 0.7276,2.8567 1.7204,6.0448 2.5348,9.2423 0.7537,2.9593 1.9381,6.6758 2.7281,9.7774 0.7718,3.0306 1.5561,6.1495 2.3279,9.1801 0.7899,3.1013 -0.014,7.086 0.7398,10.045 0.8144,3.1976 3.1857,5.5187 3.9132,8.3754 0.8656,3.3986 1.1123,5.544 1.7834,8.179 1.4253,5.5965 0.8836,9.823 0.8836,9.823 0,0 -3.4076,0.938 -8.5834,2.2562 -2.5025,0.6373 -3.4612,1.7639 -6.613,2.5666 -2.7225,0.6934 -5.5951,1.0164 -8.5482,1.7685 -2.8403,0.7234 -5.7268,1.5068 -8.5671,2.2302 -2.9533,0.7521 -6.2305,2.3835 -8.953,3.0768 -3.1517,0.8027 -7.304,-0.031 -9.8063,0.6064 -5.1763,1.3183 -7.1274,3.5355 -7.1274,3.5355 -2.9898,0.7614 -7.7566,0.8528 -10.6485,1.3419 -3.0356,0.5135 -5.0673,1.8456 -7.9992,2.0683 -3.059,0.2323 -6.7383,-8e-4 -9.6893,-0.074 -3.052,-0.076 -6.0436,-1.6957 -8.9854,-2.0862 -3.0077,-0.3994 -4.2739,0 -7.1725,-0.7111 -2.9274,-0.7228 -5.7948,-1.6255 -8.6169,-2.6575 -2.8154,-1.0296 -5.552,-2.3764 -8.2687,-3.7005 -2.6812,-1.3067 -6.1333,-1.8507 -8.7243,-3.4314 -2.7856,-1.6994 -6.5399,-5.09 -9.219,-7.1068 -2.6023,-1.959 -3.5779,-2.8406 -6.076,-5.0853 -2.4208,-2.1751 -6.19786,-5.9042 -8.51733,-8.3353 -2.24703,-2.3549 -4.77133,-3.9895 -6.92004,-6.5731 -2.08204,-2.5035 -2.32806,-5.8183 -4.31492,-8.5259 -1.92721,-2.6265 -5.01337,-5.6474 -6.84866,-8.4567 -1.78328,-2.7298 -2.48236,-3.8518 -4.17644,-6.7455 -1.6487,-2.8165 -4.88341,-6.4556 -6.44546,-9.4196 0,0 1.10921,0.9627 1.10921,0.9627 0,0 -1.0882,-1.2075 -1.0882,-1.2075 -1.54181,-2.9191 -2.29559,-4.607 -3.74854,-7.4396 -1.50657,-2.9371 -2.7826,-7.8031 -4.19618,-10.6562 -1.46508,-2.9572 -3.79933,-5.1182 -5.16752,-7.9952 -1.41662,-2.9787 -1.59496,-6.6479 -2.91112,-9.5514 -1.36025,-3.0013 -2.67419,-5.967 -3.93053,-8.9001 -1.29552,-3.0248 -2.76054,-6.0391 -3.9494,-9.0046 -1.22249,-3.0493 -1.83774,-5.9141 -2.95165,-8.9151 -1.14078,-3.0738 -1.78395,-5.075 -2.81545,-8.1134 -1.05112,-3.0965 -3.20001,-5.3989 -4.14261,-8.4753 -0.95482,-3.1166 -2.17648,-6.3432 -3.02498,-9.4566 -0.85417,-3.135 -1.14371,-6.1418 -1.89544,-9.2911 -0.75161,-3.1501 -1.34349,-6.3198 -1.99791,-9.5018 -0.65011,-3.1616 -0.41354,-7.0788 -0.97251,-10.2893 -0.55214,-3.1708 -2.99675,-6.8817 -3.46489,-10.1171 -0.45966,-3.1763 -0.9113,-6.0758 -1.2948,-9.3304 -0.37464,-3.18 1.28383,-6.5329 0.97748,-9.8026 -0.29823,-3.1823 -1.52537,-7.3366 -1.76296,-10.6174 -0.23048,-3.1837 -0.40208,-6.4151 -0.57915,-9.7041 -0.1716,-3.1845 -0.007,-6.3482 -0.13204,-9.643 -0.12074,-3.1847 -0.0587,-4.6567 -0.13881,-7.9549 -0.0774,-3.1844 -0.93389,-6.2968 -0.97629,-9.5962 0,0 -0.0292,-0.017 -0.0292,-0.017 0,0 0.2536,0.04 0.2536,0.04 -0.0474,-3.3194 -0.80213,-7.02931 -0.65379,-10.23298 0.15349,-3.31512 1.91875,-7.86117 2.27523,-11.05033 0.36844,-3.29584 1.14754,-5.5691 1.72569,-8.72834 0.59623,-3.25869 0.52096,-5.67699 1.33229,-8.78797 0.83485,-3.20117 0.92336,-8.05702 1.97731,-11.0993 1.08111,-3.12101 1.97577,-5.68818 3.27806,-8.63926 1.33069,-3.01565 2.90244,-6.21573 4.45403,-9.05115 1.57889,-2.88525 3.22825,-5.609 5.0253,-8.30454 1.82013,-2.73025 5.62412,-4.89862 7.65702,-7.43108 2.04913,-2.5528 2.37973,-4.40913 4.63376,-6.7577 2.26125,-2.35598 5.31819,-4.18554 7.77402,-6.33279 2.45333,-2.14496 4.25258,-5.66303 6.88874,-7.59638 2.62274,-1.92353 6.28431,-2.25808 9.07677,-3.96881 2.769,-1.69639 5.96827,-5.19218 8.8931,-6.67629 2.89192,-1.46745 5.48959,-2.92348 8.52324,-4.18032 2.99307,-1.24 5.1639,-0.81976 8.28476,-1.8518 3.07411,-1.0166 6.72461,-3.43941 9.91261,-4.25135 0,0 3.3991,0.89986 8.9928,-0.52473 2.6638,-0.67842 5.7329,-1.50343 9.1338,-2.36958 2.892,-0.73651 5.5457,-2.4426 8.741,-3.2564 3.0027,-0.76471 6.2019,-1.0062 9.292,-1.79319 3.0902,-0.78701 6.3786,-1.31021 9.3815,-2.07496 3.1956,-0.81386 6.122,-1.8159 9.0141,-2.55246 3.4014,-0.86626 8.057,-2.90999 10.7211,-3.58847 5.5934,-1.42452 7.7705,-2.27923 7.7705,-2.27923 0,0 3.4591,0.36416 9.5953,-1.19859 2.734,-0.69631 5.8891,-2.53337 9.5739,-3.47181 2.9576,-0.75326 7.6197,-0.29752 11.0941,-1.18235 3.0499,-0.77676 6.7007,-2.10049 10.0872,-2.96294 3.1016,-0.78993 4.9436,-2.86217 8.2811,-3.71215 3.1352,-0.79848 7.4693,-1.48851 10.7745,-2.3303 3.1595,-0.80464 5.6304,-1.86218 8.9125,-2.69804 3.178,-0.80939 6.8996,0.28726 10.1631,-0.54387 3.1943,-0.8135 5.285,-3.22175 8.5334,-4.04905 3.208,-0.81701 7.5199,-0.0324 10.7542,-0.85608 3.2207,-0.82026 5.133,-2.78489 8.3539,-3.60518 3.2344,-0.82373 8.2511,-2.03833 11.4591,-2.85534 3.2484,-0.8273 4.8953,-0.4222 8.0897,-1.23573 3.2634,-0.83113 6.8289,-3.19033 10.0069,-3.99972 3.2819,-0.83581 5.9811,-0.49105 9.1403,-1.29563 3.3051,-0.84175 6.6388,-2.44126 9.7738,-3.23968 3.3376,-0.85 8.1615,-1.84402 11.2631,-2.63393 3.3869,-0.86258 6.1382,-1.97274 9.1887,-2.74961 3.4746,-0.88492 6.7115,0.22928 9.6692,-0.52401 3.6847,-0.93838 7.1775,-1.86413 9.9115,-2.5604 6.1358,-1.56268 10.1785,-3.3383 10.1785,-3.3383 0,0 -2.8293,-3.31154 -4.011,-7.95145 -0.6,-2.35605 -0.1933,-6.00465 -0.9129,-8.83046 -0.6622,-2.59995 -1.4665,-5.29997 -2.1287,-7.89983 -0.7197,-2.82581 -0.8207,-3.71523 -1.4207,-6.07108 -1.1815,-4.63913 -1.8338,-8.04887 -1.8338,-8.04887 0,0 -5.012,0.71712 -10.9276,2.22368 -2.6359,0.6713 -5.2207,9.8e-4 -8.773,0.90568 -2.8513,0.72619 -6.6514,2.31168 -10.0007,3.1647 -2.9405,0.74887 -6.0651,1.60871 -9.3298,2.44015 -2.9902,0.76156 -5.1255,2.65166 -8.3429,3.47105 -3.0225,0.76977 -6.5608,-0.33645 -9.7474,0.47509 -3.0458,0.77571 -5.3205,3.38638 -8.4846,4.19219 -3.0638,0.7803 -5.5862,0.83186 -8.7324,1.63315 -3.0795,0.78426 -7.1328,2.39821 -10.2643,3.19576 -3.0927,0.78764 -5.7674,1.45853 -8.8854,2.25264 -3.1051,0.79078 -5.809,0.24236 -8.9141,1.03314 -3.1176,0.794 -7.9504,1.49431 -11.0428,2.28186 -3.1314,0.79753 -5.3247,1.14719 -8.4039,1.93143 -3.1462,0.80127 -7.2815,2.24051 -10.3453,3.02083 -3.1639,0.80575 -6.0142,1.21037 -9.0598,1.98602 -3.1862,0.81148 -5.3884,3.31637 -8.4107,4.08609 -3.2176,0.81945 -7.5285,0.35824 -10.5187,1.11979 -3.2652,0.83157 -5.6139,0.92434 -8.5547,1.6733 -3.3497,0.8531 -5.9628,1.68028 -8.8143,2.40651 -3.552,0.90465 -6.4444,3.48499 -9.08,4.15622 -5.9154,1.50653 -9.0223,2.06009 -9.0223,2.06009 0,0 -2.7159,-3.86662 -4.1945,-9.67232 -0.7149,-2.80691 -0.8193,-7.52915 -1.7197,-11.0647 -0.7777,-3.0536 -1.8029,-6.2494 -2.6466,-9.56185 -0.8113,-3.18583 -1.8893,-4.70072 -2.7007,-7.88656 -0.8436,-3.31272 -1.5954,-8.20375 -2.3731,-11.25759 -0.9004,-3.53514 -2.015,-6.54347 -2.7298,-9.35012 -1.4786,-5.80626 -0.7362,-8.59121 -0.7362,-8.59121 -0.8192,-3.2165 -3.4585,-6.71572 -4.1164,-9.74731 -0.7051,-3.25056 -1.1494,-5.90985 -1.6524,-8.96417 -0.5412,-3.28649 -0.6069,-7.89456 -0.8933,-10.97413 -0.3083,-3.31388 0.042,-4.63531 0.054,-7.73488 0.014,-3.30964 -0.7961,-7.65212 -0.3853,-10.74827 0.4297,-3.23884 1.683,-5.30221 2.584,-8.34314 0.9097,-3.07075 2.7375,-6.00804 4.1659,-8.91443 1.366,-2.7792 1.9762,-7.15649 3.9117,-9.88832 1.7717,-2.50067 3.924,-3.53623 6.2212,-6.00927 2.079,-2.2381 5.99,-5.42132 8.5354,-7.64575 2.3026,-2.01233 2.9372,-3.37262 5.6481,-5.38043 2.4648,-1.82557 5.5272,-3.23842 8.3495,-5.0652 2.5842,-1.67257 6.1481,-3.30837 9.0472,-4.98577 2.6739,-1.54719 4.7688,-4.96686 7.7226,-6.52116 2.7425,-1.44303 5.8823,-2.94867 8.8756,-4.40022 2.7967,-1.35623 5.3525,-0.81089 8.376,-2.17644 0,0 1.4005,-0.68549 1.4005,-0.68549 0,0 -0.9067,-1.22127 -0.9067,-1.22127 2.8696,-1.297 4.7287,-1.45535 7.7001,-2.72551 2.8994,-1.23934 6.8077,-1.59177 9.7988,-2.80267 2.9261,-1.18455 4.93,-3.25522 7.9388,-4.40978 2.9506,-1.13227 6.2503,-3.07927 9.2756,-4.18007 2.9729,-1.08176 6.4521,-2.39614 9.4925,-3.44507 2.9938,-1.0328 5.2475,-0.89851 8.3022,-1.89713 3.0129,-0.98486 7.5416,-2.99186 10.6096,-3.94121 3.03,-0.93759 6.5838,-0.93028 9.6637,-1.83109 3.0462,-0.89097 5.8568,-2.4979 8.9481,-3.35082 3.0611,-0.84458 4.4677,-1.35255 7.569,-2.15774 0,0 1.9373,0.32325 1.9373,0.32325 M 350.5324,230.949 c -2.9612,0.75418 -7.2487,2.8752 -9.9007,4.15811 -2.7285,1.31986 -3.8057,2.20954 -6.1642,4.0125 -2.3924,1.82888 -5.9143,2.76647 -7.881,5.01201 -1.9759,2.25608 -4.1549,5.00861 -5.655,7.60325 -1.496,2.58759 -2.5449,5.13746 -3.522,7.98014 -0.9684,2.81726 -1.67,7.37705 -2.0839,10.36516 -0.4072,2.93782 0.9603,5.51565 1.1317,8.54258 0.1666,2.94382 -0.4223,4.5224 0.331,7.48014 0.7517,2.95158 2.5623,7.50532 3.823,10.161 1.2971,2.73249 2.0373,3.5604 3.8007,5.93526 1.794,2.41579 4.0755,4.63277 6.2751,6.63156 2.2186,2.01595 4.8322,3.85694 7.3845,5.40029 2.5569,1.54628 5.6112,3.05494 8.4234,4.07803 2.7973,1.0177 4.3618,1.74116 7.3328,2.19299 2.9272,0.44513 7.3488,0.72258 10.3688,0.57201 2.9356,-0.14635 4.345,-0.5757 7.2981,-1.32782 2.9511,-0.75157 5.5549,-1.32897 8.203,-2.60625 2.7216,-1.31271 5.379,-3.18987 7.7363,-4.98237 2.3911,-1.8182 4.7607,-2.67118 6.7303,-4.90369 1.9791,-2.24317 4.4488,-6.39023 5.9551,-8.97084 1.5035,-2.57561 2.4273,-3.34902 3.4123,-6.18014 0.9768,-2.80683 1.344,-7.41922 1.765,-10.39842 0.4139,-2.92887 0.4282,-5.79606 0.2612,-8.81638 -0.1624,-2.93451 -0.4342,-4.47372 -1.1859,-7.42515 -0.7532,-2.95708 -2.1591,-6.41573 -3.4208,-9.07933 -1.298,-2.73984 -2.1233,-6.43704 -3.8869,-8.82142 -1.7934,-2.42502 -3.7326,-2.70564 -5.931,-4.71539 -2.2184,-2.02813 -3.437,-4.90069 -5.9881,-6.45691 -2.5584,-1.56042 -5.5451,-2.08693 -8.3577,-3.12327 -2.8018,-1.03227 -7.4008,-2.26373 -10.3755,-2.72683 -2.9343,-0.45683 -4.935,-1.85376 -7.9608,-1.70936 -2.9442,0.14053 -5.7132,0.60198 -8.6729,1.35578 0,0 -0.9545,1.66056 -0.9545,1.66056 m 3.6332,14.4986 c 3.2069,-0.81673 6.4611,-1.04034 9.6052,-0.80517 3.2393,0.24226 8.1261,0.0689 11.0828,1.30378 2.9618,1.23705 3.7797,3.21764 6.2381,5.32448 2.4132,2.0683 5.4249,3.57703 7.1426,6.36292 1.6455,2.66871 3.9935,6.90768 4.8135,10.12755 0.8177,3.21102 -0.1078,5.17944 -0.2819,8.29758 -0.1818,3.2563 -1.3356,8.07954 -2.4761,11.03609 -1.1598,3.00682 -1.2062,5.62143 -3.2264,8.10669 -2.0105,2.47347 -5.4087,5.11429 -8.1405,6.86035 -2.6438,1.68984 -4.4943,2.26214 -7.6933,3.07686 -3.2066,0.81665 -6.5089,1.30921 -9.6356,1.09579 -3.2405,-0.22119 -6.6983,-0.62309 -9.6462,-1.83045 -2.9665,-1.21512 -7.0534,-3.06793 -9.5093,-5.15743 -2.4133,-2.05326 -4.7736,-5.16968 -6.4883,-7.94771 -1.6402,-2.65725 -2.911,-5.52473 -3.7297,-8.73908 -0.8209,-3.22342 0.5663,-5.80039 0.73,-8.9313 0.1712,-3.2721 1.095,-7.52654 2.222,-10.49849 1.1485,-3.02866 2.228,-4.57443 4.241,-7.07809 2.0064,-2.49549 3.1371,-5.10061 5.874,-6.8609 2.6481,-1.70323 6.7697,-4.46379 9.9838,-5.28235 0,0 -0.2351,-0.0415 -0.2351,-0.0415"
       style="color:#000000;font-style:normal;font-variant:normal;font-weight:normal;font-stretch:normal;font-size:medium;line-height:normal;font-family:sans-serif;text-indent:0;text-align:start;text-decoration:none;text-decoration-line:none;text-decoration-style:solid;text-decoration-color:#000000;letter-spacing:normal;word-spacing:normal;text-transform:none;direction:ltr;block-progression:tb;writing-mode:lr-tb;baseline-shift:baseline;text-anchor:start;white-space:normal;clip-rule:nonzero;display:inline;overflow:visible;visibility:visible;opacity:1;isolation:auto;mix-blend-mode:normal;color-interpolation:sRGB;color-interpolation-filters:linearRGB;solid-color:#000000;solid-opacity:1;fill:#1a5295;fill-opacity:1;fill-rule:nonzero;stroke:none;stroke-width:42.05653381;stroke-linecap:butt;stroke-linejoin:miter;stroke-miterlimit:4;stroke-dasharray:none;stroke-dashoffset:0;stroke-opacity:1;color-rendering:auto;image-rendering:auto;shape-rendering:auto;text-rendering:auto;enable-background:accumulate" />
    <path
       inkscape:connector-curvature="0"
       id="path5664"
       d="m 719.1815,303.27436 c 0,0 1.2475,5.40024 1.2475,5.40024 0,0 2.1864,4.65358 3.6948,10.57641 0.7103,2.78884 0.11,5.21598 1.026,8.81281 0.77,3.02336 2.6909,6.42286 3.5527,9.80685 0.7977,3.13201 0.4949,6.2481 1.3308,9.53049 0.8169,3.20749 1.4756,6.56253 2.2925,9.76992 0.8358,3.28211 1.4097,6.84152 2.2073,9.97314 0.8618,3.38407 2.4217,8.08128 3.1917,11.10474 0.9161,3.59684 0.9204,5.72391 1.6305,8.51267 1.5085,5.92271 3.0964,10.754 3.0964,10.754 0.8158,3.20324 2.0836,4.50888 2.6142,7.72564 0.537,3.25596 1.2677,6.67128 1.522,9.92616 0.2569,3.28545 0.7778,7.54579 0.7567,10.81472 -0.021,3.29163 -2.1697,6.40829 -2.4627,9.66753 -0.2943,3.27551 -0.7097,6.69353 -1.2681,9.92038 -0.5606,3.23877 0.2843,5.44662 -0.532,8.62021 -0.8183,3.18197 -2.2106,8.16077 -3.2756,11.26082 -1.067,3.10667 -1.4027,5.47941 -2.7067,8.48733 -1.3064,3.01339 -4.6547,5.42894 -6.1881,8.3267 -1.5365,2.90337 -2.6974,5.10578 -4.451,7.87653 -1.7568,2.77527 -4.0959,6.63248 -6.0598,9.25802 -1.9672,2.6299 -3.0289,5.90353 -5.1932,8.36632 -2.1679,2.46692 -3.5472,4.2178 -5.9018,6.50014 -2.3577,2.2853 -5.4062,3.15632 -7.9403,5.2396 -2.5353,2.08434 -5.2478,5.98117 -7.9487,7.84629 -2.6987,1.86385 -6.3969,3.37487 -9.2502,5.00296 -2.8453,1.62355 -5.0373,1.39228 -8.0252,2.76456 -2.9736,1.36582 -5.5172,2.76245 -8.6213,3.86286 -3.0786,1.09127 -7.7109,3.20922 -10.9074,4.02331 0,0 -3.1863,1.22971 -9.0949,2.7345 -2.6328,0.67052 -5.7481,1.48352 -9.2962,2.38716 -2.8481,0.72534 -4.3005,1.14279 -7.6458,1.99481 -2.937,0.74797 -7.277,0.25731 -10.5378,1.08776 -2.9867,0.76065 -6.8192,2.49015 -10.0328,3.30862 -3.019,0.7689 -6.0912,1.85794 -9.2739,2.66854 -3.0423,0.7748 -5.7797,0.4861 -8.9399,1.2909 -3.0604,0.7794 -6.2243,1.6152 -9.3667,2.4154 -3.0759,0.7834 -5.4793,3.3384 -8.6072,4.135 -3.0891,0.7868 -5.4996,1.2358 -8.6138,2.029 -3.1015,0.7899 -6.1978,1.5682 -9.2993,2.3581 -3.114,0.793 -6.0104,0.7256 -9.099,1.5122 -3.1281,0.7966 -7.2063,2.8044 -10.2821,3.5876 -3.1425,0.8004 -6.7264,-0.2944 -9.7867,0.485 -3.1602,0.8048 -6.7943,2.6121 -9.8363,3.3869 -3.1826,0.8105 -4.5622,0.795 -7.581,1.5639 -3.2137,0.8184 -8.045,2.4774 -11.0319,3.238 -3.2613,0.8306 -6.1541,0.7855 -9.0914,1.5336 -3.3458,0.8521 -6.2189,3.1513 -9.0671,3.8767 -3.5479,0.9035 -5.3224,0.295 -7.9549,0.9655 -5.9084,1.5048 -9.148,2.8942 -9.148,2.8942 -3.104,0.7905 -7.9335,1.1274 -10.9016,2.179 -3.0135,1.0678 -5.6686,2.0157 -8.5332,3.3364 -2.8986,1.3363 -6.2155,3.6545 -8.9527,5.2331 -2.7606,1.5921 -3.832,2.5129 -6.4192,4.334 -2.6031,1.8323 -6.4502,3.8901 -8.8685,5.9368 -2.4273,2.0544 -4.487,4.0071 -6.7186,6.2597 -2.2363,2.2575 -4.8298,5.904 -6.8599,8.3424 -2.0317,2.4407 -3.1686,3.5707 -4.9841,6.1745 -1.8156,2.6043 -3.2292,5.2911 -4.8189,8.0409 -1.5883,2.7472 -3.6947,5.6657 -5.0479,8.5403 -1.3512,2.8703 -1.1421,6.443 -2.2492,9.4224 -1.1045,2.9719 -2.8804,7.2203 -3.7325,10.2831 -0.8494,3.0531 -2.4621,4.4601 -3.0514,7.586 -0.5869,3.1127 -0.7661,7.8588 -1.0856,11.0261 -0.3176,3.1484 -0.7044,6.188 -0.7487,9.3734 -0.044,3.1612 0.5431,4.5777 0.7774,7.7586 0.2317,3.1492 0.416,6.3502 0.9291,9.5024 0.5068,3.1125 1.9884,8.0328 2.7778,11.1325 0,0 1.0568,1.822 2.5608,7.727 0.6717,2.6375 0.9618,5.5137 1.8658,9.0626 0.7266,2.8534 1.1429,7.941 1.9952,11.2874 0.7494,2.9427 2.7039,5.352 3.5345,8.6136 0.7622,2.9926 1.1009,4.9703 1.9193,8.1842 0.7704,3.0247 2.0371,7.1934 2.8476,10.3754 0.7765,3.049 1.1527,6.7941 1.9575,9.9541 0.7812,3.0672 1.5045,6.2224 2.3045,9.3637 0.7853,3.083 1.7173,4.5523 2.5133,7.6779 0.7889,3.0979 1.051,5.987 1.8435,9.0985 0.7924,3.1117 0.7003,7.8483 1.4892,10.9462 0.7961,3.1254 1.9547,4.6955 2.7399,7.7785 0.8,3.1411 2.6528,7.9282 3.434,10.9953 0.8045,3.1593 0.042,5.9317 0.8185,8.98 0.8105,3.1823 2.3555,6.8609 3.1259,9.8858 0.8184,3.2138 2.1472,4.413 2.9093,7.4051 0.8306,3.2616 0.248,7.4079 0.9973,10.3503 0.8522,3.346 3.168,5.511 3.8947,8.3641 0.9038,3.5487 1.7837,6.739 2.4554,9.3766 1.5041,5.906 2.76,9.9899 2.76,9.9899 0.7559,2.9681 0.8128,6.9579 1.8063,9.7426 1.0261,2.8758 1.0318,4.429 2.2951,7.1119 1.2972,2.7532 2.7074,5.8494 4.2378,8.402 1.5594,2.6009 4.15,5.8925 5.9335,8.2882 1.8047,2.4238 4.7746,3.8963 6.7901,6.1132 2.0272,2.2297 2.7625,5.1195 4.9837,7.1429 2.2224,2.0244 5.7294,2.4126 8.127,4.2333 2.3902,1.8155 4.1507,5.1466 6.6959,6.7629 2.5318,1.6076 6.0601,2.1569 8.7262,3.5705 2.7218,1.4432 3.601,3.1786 6.4449,4.4381 2.8149,1.2467 5.8171,2.614 8.7376,3.6886 2.888,1.0628 7.2544,0.6527 10.2321,1.5549 2.9462,0.8926 4.391,2.9292 7.4116,3.6721 2.9909,0.7356 6.5815,1.8852 9.6324,2.4812 3.0255,0.5909 5.762,0.9394 8.8341,1.4002 3.0513,0.4575 7.2496,-0.7931 10.3347,-0.4571 3.0706,0.3344 6.1396,2.3646 9.2315,2.5852 3.0844,0.22 5.5281,-1.4826 8.6218,-1.3689 0,0 -0.3321,1.8509 -0.3321,1.8509 3.3303,0.122 6.3442,-1.2458 9.6495,-1.1971 3.3303,0.049 7.559,1.6465 10.867,1.6182 3.3277,-0.028 6.6836,-0.1017 9.9921,-0.2126 3.323,-0.111 5.5037,-1.1318 8.8108,-1.3291 3.3165,-0.1978 8.6176,-0.4877 11.9213,-0.776 3.3067,-0.2884 5.5254,-1.6967 8.8225,-2.0792 3.294,-0.3821 7.5409,-0.3051 10.8287,-0.7846 3.2781,-0.4782 6.3518,0.2285 9.627,-0.3501 3.2591,-0.5756 4.8607,-2.1165 8.12,-2.7951 3.2369,-0.6739 8.2118,-0.566 11.4522,-1.3448 3.2114,-0.7714 5.9852,-1.3069 9.203,-2.185 3.1834,-0.8691 5.4799,-1.9263 8.6728,-2.9025 3.1532,-0.964 7.231,-1.8552 10.3962,-2.9267 3.1201,-1.0564 6.1513,-2.1371 9.2859,-3.3012 3.086,-1.1461 6.456,-2.4606 9.5586,-3.714 3.0504,-1.2323 5.9074,-4.3219 8.9765,-5.6605 3.0142,-1.3147 5.0224,-2.4503 8.057,-3.8701 2.9769,-1.393 6.7612,-3.115 9.7601,-4.6116 2.9401,-1.4673 6.7537,-1.7201 9.7181,-3.2845 2.9026,-1.5371 4.5278,-4.3433 7.4547,-5.9803 2.8661,-1.603 5.3741,-1.588 8.2653,-3.2888 0,0 1.5458,-0.1907 1.5458,-0.1907 2.6007,-1.528 5.2843,-3.2956 7.8556,-4.9167 2.5561,-1.6118 5.0628,-3.1936 7.5721,-4.8997 2.5029,-1.7017 4.9047,-3.3168 7.3432,-5.1147 2.4396,-1.7984 3.1161,-3.7284 5.4737,-5.6251 2.3638,-1.9019 4.9421,-3.5372 7.2058,-5.5403 2.2739,-2.012 5.9793,-4.3419 8.1341,-6.4582 2.1674,-2.1288 2.784,-5.6055 4.8126,-7.8421 2.0412,-2.2505 4.1399,-2.905 6.0221,-5.267 1.8922,-2.3748 3.883,-6.6288 5.5956,-9.1187 1.7534,-2.5493 3.3473,-3.2824 4.8821,-5.9631 1.536,-2.6831 3.8247,-5.4954 5.119,-8.3046 1.291,-2.8029 1.8967,-7.5333 2.9242,-10.4564 1.0211,-2.9045 1.036,-4.4936 1.7744,-7.5115 0.7296,-2.9815 2.5663,-7.3388 2.9982,-10.4258 0.424,-3.0292 -0.3021,-4.4252 -0.1851,-7.5512 0.114,-3.0454 1.4945,-7.5483 1.2982,-10.6811 -0.1899,-3.0322 -1.7434,-6.3065 -2.2413,-9.4164 -0.4788,-2.9913 -0.1927,-4.2357 -0.972,-7.2955 0,0 -2.1046,-3.787 -3.5259,-9.3678 -0.6693,-2.6277 0.1999,-6.8233 -0.6632,-10.2124 -0.7256,-2.8489 -2.7735,-6.3609 -3.5856,-9.5495 -0.7516,-2.951 -2.0871,-5.4207 -2.8749,-8.5137 -0.7697,-3.0223 -1.6003,-5.8474 -2.37,-8.8696 -0.7876,-3.0927 -0.7089,-5.0537 -1.4604,-8.0045 -0.8121,-3.1887 -0.7217,-7.9268 -1.4472,-10.7757 -0.8633,-3.3891 -2.9925,-6.5842 -3.6617,-9.212 -1.4213,-5.5806 -1.6707,-7.3073 -1.6707,-7.3073 0,0 -2.4573,0.062 -8.3657,1.5663 -2.6328,0.6705 -5.7849,1.5562 -9.3331,2.4599 -2.8479,0.7253 -7.7016,1.8674 -11.047,2.7194 -2.9369,0.748 -5.7758,1.7743 -9.0366,2.6048 -2.9865,0.7606 -4.8071,1.3035 -8.0208,2.122 -3.0188,0.7688 -6.6517,1.909 -9.8344,2.7197 -3.0422,0.7747 -6.6188,-0.3793 -9.7791,0.4255 -3.0603,0.7794 -6.8361,2.0551 -9.9783,2.8555 -3.0759,0.7833 -4.7185,2.8754 -7.8464,3.672 -3.0891,0.7868 -7.7779,0.5918 -10.8923,1.3849 -3.1014,0.7898 -4.4106,1.1807 -7.5122,1.9706 -3.1139,0.7931 -7.4177,3.0927 -10.5064,3.8793 -3.128,0.7967 -6.009,1.652 -9.0848,2.4353 -3.1427,0.8004 -5.1873,1.0224 -8.2477,1.8018 -3.16,0.8048 -6.6525,2.0293 -9.6946,2.8041 -3.1825,0.8105 -5.846,0.5078 -8.8649,1.2767 -3.2138,0.8185 -7.2738,2.854 -10.2606,3.6147 -3.2613,0.8306 -6.9668,1.4456 -9.9041,2.1936 -3.346,0.8522 -5.0574,1.3737 -7.9057,2.0991 -3.5477,0.9035 -7.0339,2.0286 -9.6664,2.6991 -5.9084,1.5046 -9.4305,0.5589 -9.4305,0.5589 0,0 -0.015,-1.6916 -0.6689,-4.2584 -0.6536,-2.5668 -3.2254,-5.4732 -3.2254,-5.4732 0,0 5.2711,-0.05 11.2341,-1.5693 2.6634,-0.6783 3.9678,-2.2106 7.5514,-3.1232 2.8814,-0.7339 7.9889,-1.1806 11.3682,-2.0413 2.9715,-0.7568 5.8868,-0.9745 9.1803,-1.8133 3.0217,-0.7695 6.2849,-1.7466 9.5304,-2.5732 3.0542,-0.7778 5.0001,-1.0936 8.2136,-1.912 3.0788,-0.7841 6.749,-1.5583 9.9398,-2.371 3.0974,-0.7888 6.0546,-1.5657 9.2266,-2.3735 3.1132,-0.7929 5.2279,-2.6879 8.3842,-3.4918 3.1279,-0.7967 8.0582,-2.116 11.2002,-2.9162 3.1422,-0.8003 6.4941,-0.9608 9.6222,-1.7574 3.1563,-0.8038 5.3786,-2.6281 8.4918,-3.421 3.1718,-0.8078 7.0917,-0.095 10.1886,-0.8847 3.1904,-0.8125 4.5327,-2.4686 7.6109,-3.2524 3.2136,-0.8185 6.6711,-2.0582 9.7257,-2.8361 3.2452,-0.8265 7.6558,-1.6178 10.6773,-2.3873 3.2933,-0.8387 6.5936,-1.4818 9.5647,-2.2385 3.379,-0.8605 5.5657,-2.0369 8.4469,-2.7707 3.5835,-0.9126 7.0085,-1.7302 9.6719,-2.4085 5.9639,-1.5188 10.3128,-1.2355 10.3128,-1.2355 0,0 3.1833,-0.4051 8.6955,-1.8091 2.552,-0.6499 4.9585,-3.0216 8.2969,-3.8718 2.7629,-0.7036 5.511,0.5186 8.6563,-0.2825 2.8556,-0.7272 5.0138,-2.0156 8.0731,-2.7946 2.9128,-0.7419 7.7409,-1.7001 10.7446,-2.4651 2.9586,-0.7535 5.7104,-1.1046 8.6692,-1.858 3.0037,-0.7651 6.1184,-2.7035 9.0314,-3.4454 3.0593,-0.7792 4.552,-0.2564 7.4077,-0.9837 3.1456,-0.8012 5.8444,-1.9379 8.6076,-2.6417 3.339,-0.8504 8.1786,-1.624 10.7309,-2.274 5.5125,-1.4039 7.6288,-1.7299 7.6288,-1.7299 3.3063,-0.8421 7.0165,-3.7153 10.0672,-4.7723 3.2189,-1.1151 7.1087,-1.4953 10.0511,-2.8403 3.089,-1.412 5.6737,-2.0442 8.4673,-3.6988 2.9082,-1.7226 5.5207,-3.4775 8.1195,-5.4506 2.6759,-2.0318 3.7011,-5.2107 6.0605,-7.4951 2.3974,-2.321 5.4341,-5.602 7.517,-8.1695 2.0889,-2.5747 5.2079,-4.3947 6.9928,-7.2031 1.7685,-2.7824 1.9924,-6.4848 3.4748,-9.4825 1.3987,-2.829 2.5382,-5.6632 3.7198,-8.6583 1.1545,-2.9261 2.4689,-6.051 3.4373,-9.1316 0.9416,-2.9951 1.9631,-4.111 2.7482,-7.2484 0.7616,-3.0428 1.4856,-6.1481 2.1179,-9.3215 0.6131,-3.076 0.9585,-8.162 1.4665,-11.3571 0.4926,-3.0988 0.9171,-6.2453 1.3259,-9.4534 0.3967,-3.1146 1.742,-4.5779 2.0733,-7.7931 0.322,-3.1253 0.7671,-7.6469 1.0396,-10.865 0.2655,-3.1325 0.4717,-5.0737 0.7017,-8.2917 0.2342,-3.2319 -1.1915,-7.6287 -1.0541,-10.82925 0.1388,-3.23356 1.113,-6.91301 1.1525,-10.11954 0.04,-3.23298 0.9637,-5.23307 0.9021,-8.44331 -0.062,-3.22825 -0.4117,-7.33998 -0.5769,-10.55 -0.1657,-3.22106 -2.0785,-6.06206 -2.3479,-9.26967 -0.2703,-3.20987 1.3413,-5.90511 0.9663,-9.1065 -0.3742,-3.19449 -1.4296,-7.53122 -1.9088,-10.72218 -0.4772,-3.17713 -1.2793,-4.41776 -1.8601,-7.59646 -0.5775,-3.15613 -2.0457,-6.66166 -2.7268,-9.82386 -0.6748,-3.13313 -1.3012,-6.16953 -2.078,-9.31313 -0.7681,-3.10858 -1.9242,-7.03645 -2.7926,-10.15986 -0.8569,-3.08211 -1.3154,-5.27584 -2.2709,-8.37664 -0.9409,-3.05482 -1.4838,-7.95052 -2.5203,-11.02768 -1.0197,-3.02745 -2.5843,-4.27372 -3.6968,-7.32669 -1.0931,-2.99972 -1.5512,-5.81181 -2.7348,-8.83985 -1.1613,-2.97224 -1.5144,-6.57639 -2.7629,-9.57964 -1.2242,-2.94518 -4.2081,-5.67446 -5.5164,-8.65275 -1.2826,-2.91978 -0.8129,-6.47303 -2.1767,-9.42769 -1.336,-2.89469 -4.0755,-6.73586 -5.4898,-9.66702 -1.3851,-2.87095 -1.5774,-5.32762 -3.0378,-8.2364 -1.4303,-2.8486 -2.7947,-5.46703 -4.2972,-8.35454 -1.4716,-2.82752 -4.9263,-5.62966 -6.4675,-8.4969 0,0 1.9791,0.2643 1.9791,0.2643 -1.5001,-2.79401 -3.5266,-4.73657 -5.0823,-7.44276 -1.5819,-2.75189 -2.8867,-6.91571 -4.5308,-9.56651 -1.6742,-2.69914 -3.202,-4.58201 -4.9456,-7.16556 -1.7781,-2.63466 -5.5786,-5.29864 -7.4341,-7.80141 -1.8932,-2.55402 -3.2066,-4.18517 -5.1859,-6.58977 -2.0203,-2.45457 -4.4012,-6.48027 -6.5171,-8.76619 -2.1586,-2.33198 -2.7072,-3.60176 -4.9712,-5.74457 -2.3051,-2.18163 -4.6531,-4.32362 -7.0744,-6.29459 -2.4562,-1.99952 -5.4995,-3.18132 -8.0822,-4.94884 -2.517,-1.72259 -6.5583,-4.18564 -9.2037,-5.65773 -2.6578,-1.47907 -4.7719,-1.93514 -7.5563,-3.14681 -2.7796,-1.20958 -6.1956,-3.46267 -9.0985,-4.39145 -2.8759,-0.92006 -5.5442,-0.72327 -8.5381,-1.35365 -2.943,-0.61961 -4.258,-1.99443 -7.3123,-2.32066 -2.9794,-0.31829 -6.3991,-1.11545 -9.4817,-1.14199 -2.9865,-0.0257 -6.3686,-0.0774 -9.4498,0.18222 -2.969,0.25003 -5.7483,2.48255 -8.8032,3.00777 -2.9307,0.50381 -5.9338,1.15397 -8.9416,1.91999 0,0 -4.5868,-0.75751 -10.0899,0.64402 -2.5912,0.65992 -5.9186,1.874 -9.2605,2.72512 -2.8091,0.71544 -4.655,2.768 -7.7992,3.56876 -2.9101,0.74114 -7.0101,1.04167 -10.0599,1.81839 -2.9801,0.75899 -4.5608,1.84055 -7.5409,2.5995 -3.0496,0.77666 -6.64,1.72304 -9.5496,2.46406 -3.1443,0.8008 -6.5809,1.47778 -9.39,2.19322 -3.3421,0.85114 -6.6433,-0.0177 -9.2345,0.64219 -5.503,1.40151 -8.4087,4.015 -8.4087,4.015 0,0 0.7163,-0.19272 0.7163,-0.19272 m 18.7239,10.14892 c 0,0 1.93,-1.6036 7.6372,-3.05712 2.7593,-0.70274 5.8356,-1.23367 9.3111,-2.11886 3.0018,-0.76449 6.7843,-2.21669 10.0406,-3.04599 3.1319,-0.79761 7.2267,0.16627 10.3584,-0.63132 3.2567,-0.82941 4.9856,-2.86149 7.9878,-3.62607 3.4753,-0.8851 6.6228,-1.39194 9.3819,-2.09461 5.7078,-1.45369 11.1406,-1.62026 11.1406,-1.62026 3.3174,-0.8449 6.8505,-2.11355 9.9963,-2.60583 3.374,-0.52854 5.3192,-0.0402 8.5113,-0.18051 3.3914,-0.14911 6.193,-0.46878 9.3982,-0.20031 3.3518,0.28074 8.4267,0.063 11.5969,0.77668 3.2434,0.73036 4.7351,1.10557 7.8122,2.26358 3.0768,1.15795 7.7006,2.94402 10.6351,4.50385 2.8778,1.52954 4.312,4.46814 7.0757,6.35961 2.626,1.79721 5.7395,1.86508 8.2641,3.99047 2.4311,2.04656 4.7476,4.23533 7.0873,6.56696 2.2513,2.24356 3.5747,6.14846 5.7438,8.63885 2.0889,2.39855 4.0505,4.02145 6.0648,6.63356 1.9449,2.52178 5.3919,6.29412 7.2688,9.00115 1.8173,2.62088 2.9584,3.52364 4.7136,6.30578 1.7044,2.70119 2.4993,6.09394 4.1467,8.93568 1.6041,2.7671 4.1439,6.98023 5.6954,9.87009 0,0 0.5045,-0.15847 0.5045,-0.15847 0,0 0.3909,-0.47572 0.3909,-0.47572 1.5524,2.88863 2.9336,4.77982 4.4115,7.61947 1.5139,2.9091 2.4706,7.35992 3.9067,10.22087 1.471,2.93066 2.2483,3.94673 3.638,6.83032 1.4237,2.9538 3.4437,7.77797 4.7825,10.68609 1.3712,2.97799 2.5217,3.97041 3.8047,6.90444 1.3133,3.00318 2.9597,6.09644 4.1813,9.05774 1.2493,3.02857 2.5312,7.75941 3.6853,10.74875 1.1795,3.05461 2.6401,5.73237 3.721,8.75101 1.1033,3.08083 2.0885,5.07759 3.09,8.12619 1.0205,3.10637 0.1935,6.97048 1.1091,10.04869 0.9313,3.13061 2.9558,7.04892 3.7796,10.15611 0.8359,3.15337 2.4541,5.28242 3.1806,8.4177 0.7346,3.17423 1.1703,5.71067 1.7943,8.87246 0.6299,3.19232 -0.4144,7.54648 0.1027,10.73266 0.5208,3.20657 0.9768,5.40376 1.3845,8.61093 0.4092,3.2175 1.7467,7.92862 2.0433,11.1532 0.2964,3.22413 0.9748,4.62494 1.1598,7.86288 0.1844,3.22752 0.5035,7.96827 0.5783,11.21622 0.074,3.22664 -1.5831,6.15409 -1.616,9.40743 -0.033,3.22266 1.7914,6.33012 1.6547,9.58531 -0.1352,3.21565 -0.3618,6.58065 -0.5975,9.83395 0,0 -0.6306,-1.3156 -0.6306,-1.3156 0,0 -0.2775,1.9549 -0.2775,1.9549 -0.2149,3.0081 0.2851,4.3115 0.037,7.2224 -0.2571,3.0094 -0.3156,6.8518 -0.6155,9.754 -0.3109,3.0082 -0.872,5.064 -1.2369,7.9542 -0.3796,3.0055 -2.2439,5.8986 -2.6907,8.7728 -0.4663,2.9984 -0.8356,7.4607 -1.3853,10.3119 -0.5753,2.9844 -0.4384,6.0451 -1.1165,8.8634 -0.7122,2.9597 -2.6708,4.9652 -3.5097,7.7362 -0.8827,2.9158 -0.4404,6.5199 -1.479,9.2203 -1.0932,2.8425 -2.0253,5.4037 -3.3092,8.0001 -1.4403,2.9128 -2.6614,5.0939 -4.347,7.7181 -1.7383,2.7061 -4.7429,6.0821 -6.7935,8.4833 -2.0567,2.4084 -5.123,3.4488 -7.5468,5.5526 -2.3525,2.0422 -4.8712,4.4592 -7.6186,6.2166 -2.5903,1.6568 -4.0081,1.9764 -6.9911,3.3819 -2.7622,1.3016 -6.906,4.0109 -10.0383,5.0982 -2.8785,0.9991 -5.4021,0.35 -8.6191,1.1693 0,0 -3.8682,2.4653 -9.3806,3.8693 -2.5518,0.6498 -4.7743,-0.2285 -8.1127,0.6218 -2.763,0.7037 -6.7712,2.4349 -9.9165,3.2359 -2.8556,0.7273 -4.2375,2.319 -7.2967,3.098 -2.9128,0.7419 -7.4179,0.3116 -10.4216,1.0766 -2.9587,0.7535 -4.0161,1.8692 -6.9748,2.6227 -3.0039,0.7651 -6.9125,0.5583 -9.8255,1.3002 -3.0591,0.779 -7.0893,2.7739 -9.9448,3.5011 -3.1456,0.8011 -5.2559,0.3295 -8.0192,1.0332 -3.3389,0.8503 -6.6641,3.5264 -9.2164,4.1763 -5.5126,1.4041 -8.9974,0.4911 -8.9974,0.4911 0,0 -3.9125,2.2173 -10.0417,3.7783 -2.7311,0.6956 -4.0859,1.0879 -7.7666,2.0254 -2.9544,0.7523 -7.1121,2.5525 -10.5826,3.4364 -3.0465,0.7758 -5.394,0.3104 -8.7766,1.1718 -3.0981,0.789 -8.2416,2.191 -11.5754,3.0401 -3.1318,0.7975 -6.3147,1.7346 -9.6163,2.5755 -3.1558,0.8037 -4.4968,1.4719 -7.7749,2.3067 -3.1747,0.8085 -6.9508,0.4672 -10.2105,1.2974 -3.1908,0.8126 -7.4127,1.7281 -10.6574,2.5544 -3.2044,0.8161 -4.9976,2.9809 -8.2282,3.8037 -3.2172,0.8193 -6.5651,0.4239 -9.7824,1.2432 -3.2306,0.8228 -6.5635,1.5449 -9.7679,2.361 -3.2446,0.8263 -6.1791,2.0135 -9.3697,2.826 -3.26,0.8303 -7.7819,2.9956 -10.9564,3.8041 -3.2782,0.8348 -5.6134,1.6012 -8.7691,2.4049 -3.3013,0.8408 -6.2254,0.1952 -9.3567,0.9927 -3.3339,0.8491 -7.8012,1.3708 -10.8995,2.1599 -3.383,0.8616 -7.1246,2.2706 -10.1716,3.0466 -3.4708,0.8839 -4.8498,1.5911 -7.8043,2.3435 -3.6802,0.9373 -8.8264,2.0858 -11.5572,2.7813 -6.1289,1.5609 -8.9284,1.6026 -8.9284,1.6026 0,0 2.0344,3.8777 3.2161,8.5177 0.6,2.356 1.311,5.6924 2.0308,8.5183 0.6621,2.5999 1.1451,4.3602 1.8073,6.9602 0.7196,2.8258 1.3019,6.9553 1.9018,9.3112 1.1816,4.6391 2.2314,6.6359 2.2314,6.6359 0,0 2.6568,0.6216 8.5654,-0.8832 2.6328,-0.6706 6.6007,-2.7399 10.1489,-3.6435 2.848,-0.7253 4.28,-1.9326 7.6255,-2.7846 2.9369,-0.748 5.7722,-0.861 9.033,-1.6914 2.9868,-0.7607 8.0547,-1.8376 11.2685,-2.656 3.0189,-0.7689 5.9165,-0.5943 9.0992,-1.4049 3.0424,-0.7747 5.8905,-1.3597 9.0508,-2.1645 3.0603,-0.7794 6.4761,-3.0621 9.6185,-3.8624 3.0759,-0.7834 4.6155,-1.5905 7.7434,-2.3871 3.0891,-0.7867 6.1315,-0.4096 9.2458,-1.2029 3.1015,-0.7898 7.756,-2.833 10.8574,-3.6228 3.1139,-0.7931 4.571,-1.1951 7.6597,-1.9818 3.128,-0.7966 7.984,-0.6633 11.0599,-1.4466 3.1425,-0.8004 6.4031,-1.8845 9.4634,-2.664 3.1602,-0.8048 4.567,-2.5693 7.6091,-3.3441 3.1826,-0.8105 6.52,-0.085 9.5388,-0.8533 3.2137,-0.8184 6.7414,-3.4608 9.7281,-4.2215 3.2614,-0.8306 5.8711,-1.4233 8.8085,-2.1713 3.3459,-0.8522 6.2674,-0.2551 9.1156,-0.9805 3.5479,-0.9036 6.7004,-1.6718 9.3328,-2.3423 5.9084,-1.5047 10.2708,-3.9823 10.2708,-3.9823 0,0 1.5378,4.1258 3.0164,9.9313 0.7149,2.807 1.7349,7.1164 2.6354,10.6521 0.7777,3.0535 0.3194,6.8715 1.163,10.184 0.8114,3.1857 2.8143,6.0651 3.6257,9.251 0.8437,3.3127 0.637,6.9693 1.4148,10.0232 0.9004,3.5351 2.0663,4.836 2.7811,7.6427 1.4787,5.806 3.3207,10.7417 3.3207,10.7417 0.7489,2.9404 0.5976,4.7235 1.0333,7.5549 0.4595,2.9876 0.507,7.8861 0.6356,10.759 0.1343,3.0036 0.85,4.303 0.6428,7.1888 -0.2139,2.9778 -0.9215,7.4313 -1.4765,10.292 -0.5646,2.9089 -2.2949,4.0254 -3.1887,6.8219 -0.8957,2.8034 -0.4856,5.9997 -1.688,8.699 -1.191,2.6738 -2.5666,5.2157 -4.0348,7.7961 -1.4425,2.5356 -4.1583,6.4699 -5.8459,8.9237 -1.7557,2.5526 -3.8981,3.2331 -5.9041,5.6848 -1.9628,2.3986 -4.4914,5.8481 -6.6666,8.1477 -2.1323,2.2544 -4.146,3.5622 -6.4569,5.7191 -2.2725,2.1211 -4.0417,3.8638 -6.4626,5.8885 -2.3885,1.9976 -3.9881,4.2013 -6.498,6.1032 -2.4874,1.8849 -5.2585,5.3479 -7.8422,7.1366 -2.5721,1.7806 -6.335,1.9005 -8.9803,3.5838 -2.645,1.6834 -4.2651,3.103 -6.9614,4.6871 0,0 -0.2335,-0.059 -0.2335,-0.059 0,0 0.2683,1.9133 0.2683,1.9133 -2.7757,1.633 -5.5847,1.3585 -8.3303,2.8967 -2.8088,1.5738 -6.9083,4.3219 -9.6881,5.7988 -2.8426,1.5102 -4.7752,1.6873 -7.59,3.0985 -2.8768,1.4422 -5.3028,2.9028 -8.1533,4.244 -2.9104,1.3694 -5.8825,2.66 -8.7683,3.9265 -2.9435,1.2919 -5.9398,4.4606 -8.861,5.6484 -2.9759,1.21 -7.0118,1.9407 -9.968,3.0456 -3.0064,1.1236 -4.4285,0.9684 -7.418,1.9862 -3.036,1.0339 -5.8478,2.3862 -8.8698,3.3142 -3.063,0.9405 -8.0743,2.1183 -11.1267,2.9537 -3.0868,0.8453 -6.162,1.7741 -9.2421,2.5146 -3.1081,0.7469 -5.8883,2.0647 -8.9933,2.7094 -3.1262,0.6489 -5.2795,-0.4526 -8.407,0.096 -3.141,0.5511 -5.6608,2.3846 -8.8073,2.8381 -3.153,0.4545 -7.0062,1.4571 -10.1689,1.8173 -3.1606,0.3601 -7.2571,-1.0165 -10.4317,-0.7468 -3.1664,0.2691 -6.6421,1.1839 -9.8264,1.3668 -3.1694,0.1818 -5.0305,1.2975 -8.2217,1.3982 -3.17,0.1 -7.1289,-1.6792 -10.3244,-1.6566 -3.1692,0.022 -5.022,0.4021 -8.2202,0.352 -3.1663,-0.049 -8.2035,0.5403 -11.4024,0.4233 0,0 1.2605,0.7832 1.2605,0.7832 -3.205,-0.1175 -7.6779,-1.2312 -10.8568,-1.4719 -3.2034,-0.2429 -4.478,-0.1598 -7.6378,-0.5324 -3.1966,-0.377 -7.4002,-0.2446 -10.5344,-0.7596 -3.1814,-0.5227 -5.2331,-1.8635 -8.3319,-2.5334 -3.1571,-0.6826 -8.084,-2.2238 -11.1358,-3.0647 -3.1184,-0.8591 -5.3425,-0.2683 -8.3301,-1.2987 -3.0624,-1.056 -7.0294,-3.3401 -9.9319,-4.5821 -2.9802,-1.2753 -5.0094,-3.5072 -7.7969,-4.9853 -2.9321,-1.5546 -6.4618,-2.7637 -9.1593,-4.5356 -2.7653,-1.8163 -3.6201,-3.55 -6.1192,-5.6125 -2.5377,-2.0941 -6.7276,-3.4546 -8.9704,-5.8215 -2.2456,-2.3698 -3.3467,-6.3962 -5.2759,-9.0586 -1.8983,-2.6198 -2.9367,-3.8492 -4.5086,-6.7708 -1.5201,-2.825 -3.0606,-5.5892 -4.2572,-8.713 -1.14,-2.9756 -3.2367,-7.7381 -4.0673,-10.9995 0,0 -1.1548,-1.8332 -2.6587,-7.7384 -0.6717,-2.6375 -0.5692,-5.4703 -1.473,-9.0193 -0.7268,-2.8534 -1.1662,-7.8132 -2.0185,-11.1596 -0.7494,-2.9426 -3.0619,-5.0774 -3.8925,-8.3391 -0.7621,-2.9924 -0.094,-5.3518 -0.9131,-8.5658 -0.7703,-3.0246 -2.8682,-7.5717 -3.6786,-10.7539 -0.7765,-3.0488 0.2236,-5.9102 -0.5811,-9.0701 -0.7813,-3.0673 -2.6722,-6.872 -3.4722,-10.0132 -0.7852,-3.0831 -1.4006,-6.2043 -2.1967,-9.33 -0.7889,-3.0977 -1.8204,-6.1889 -2.6128,-9.3006 -0.7925,-3.1116 -1.0914,-4.2849 -1.8803,-7.3828 -0.796,-3.1256 -2.4644,-6.3803 -3.2497,-9.4635 -0.7999,-3.1409 -1.8867,-7.548 -2.6679,-10.615 -0.8046,-3.1593 -1.148,-4.8852 -1.9245,-7.9336 -0.8105,-3.1823 -2.0252,-6.6718 -2.7954,-9.6966 -0.8186,-3.2139 -0.579,-5.8721 -1.3411,-8.8644 -0.8306,-3.2614 -2.4883,-6.629 -3.2377,-9.5715 -0.8521,-3.3461 -1.0513,-6.2028 -1.778,-9.056 -0.9038,-3.5488 -1.1935,-6.7728 -1.8652,-9.4104 -1.5043,-5.9061 -3.2565,-11.1182 -3.2565,-11.1182 -0.817,-3.2078 -1.6203,-6.3227 -2.0832,-9.5476 -0.4707,-3.2697 0.096,-6.7328 -0.025,-9.9952 -0.1224,-3.2952 -1.2538,-5.9264 -1.0335,-9.1888 0.2218,-3.2855 1.9326,-5.2983 2.4877,-8.5246 0.5577,-3.242 1.9046,-7.2613 2.7844,-10.4172 0.8832,-3.1668 0.2575,-5.6592 1.4504,-8.7128 1.1957,-3.0607 2.4251,-6.186 3.9177,-9.106 1.4951,-2.925 3.5576,-5.4552 5.3358,-8.2119 1.7799,-2.7595 4.9939,-5.98 7.0426,-8.5438 2.049,-2.564 3.1695,-4.4097 5.4725,-6.7509 2.2995,-2.3377 5.8539,-5.4991 8.3918,-7.5876 2.5288,-2.0811 4.5893,-3.1724 7.3403,-4.9795 2.733,-1.7951 4.1662,-4.5124 7.1042,-6.0109 2.9059,-1.4821 7.5016,-1.861 10.5944,-3.027 3.0446,-1.1484 4.6194,-3.2431 7.8318,-4.0612 0,0 4.1274,-1.5346 10.036,-3.0394 2.6328,-0.6704 5.4005,-1.301 8.9486,-2.2047 2.848,-0.7253 6.492,-1.7102 9.8376,-2.5622 2.9369,-0.748 6.8299,0.1585 10.0908,-0.672 2.9866,-0.7607 5.4186,-1.2525 8.6322,-2.071 3.0191,-0.7689 5.1765,-2.1561 8.3593,-2.9667 3.0422,-0.7748 6.7531,-2.9227 9.9134,-3.7275 3.0604,-0.7794 6.848,0.3117 9.9906,-0.4886 3.0758,-0.7834 4.8207,-2.5908 7.9487,-3.3873 3.089,-0.7867 6.3713,-2.064 9.4855,-2.8572 3.1015,-0.7898 7.1108,-2.01 10.2122,-2.7998 3.1139,-0.793 6.423,0.3749 9.5116,-0.4117 3.1279,-0.7967 6.9542,-2.6381 10.0301,-3.4215 3.1425,-0.8003 4.256,-1.5868 7.3163,-2.3662 3.1602,-0.8049 7.384,-2.5076 10.426,-3.2823 3.1826,-0.8106 5.2891,-1.075 8.3079,-1.8438 3.2137,-0.8184 6.2103,-1.0978 9.197,-1.8584 3.2613,-0.8306 7.6072,-2.6436 10.5445,-3.3916 3.3459,-0.8522 5.797,0.23 8.6452,-0.4954 3.5479,-0.9036 7.0219,-3.6002 9.6544,-4.2706 5.9084,-1.5047 8.8963,-2.2387 8.8963,-2.2387 3.1132,-0.7928 5.9901,-1.5606 9.0013,-2.5795 3.0389,-1.02832 6.8212,-0.45002 9.7494,-1.69746 2.9482,-1.25597 6.7337,-3.57336 9.5621,-5.03982 2.8426,-1.4738 5.3857,-3.74115 8.1,-5.41585 2.7227,-1.67985 4.9304,-3.76042 7.5164,-5.63046 2.5907,-1.87354 3.8976,-3.33083 6.3435,-5.3833 2.4479,-2.05422 6.2154,-4.62323 8.5107,-6.84463 2.2956,-2.22161 4.17,-4.64356 6.3053,-7.02047 2.1343,-2.37573 4.586,-3.00125 6.5527,-5.52017 1.9653,-2.51708 3.5666,-6.90113 5.357,-9.54919 1.7882,-2.64516 2.2524,-4.1113 3.8585,-6.87529 1.6043,-2.76028 4.3223,-6.82592 5.7374,-9.69291 1.4131,-2.86262 3.2922,-4.21202 4.5092,-7.16897 1.2146,-2.95138 1.1394,-5.61457 2.1515,-8.64824 1.0097,-3.02657 3.1536,-7.53939 3.9542,-10.63629 0.7983,-3.08844 0.071,-6.51165 0.655,-9.65842 0.5809,-3.13506 1.4495,-4.48341 1.8098,-7.66485 0.3584,-3.16631 0.8868,-8.33442 1.0194,-11.53548 0.1318,-3.1817 -0.9561,-5.49761 -1.0545,-8.70264 -0.098,-3.17999 0.1108,-5.43337 -0.2205,-8.62529 -0.3279,-3.16125 -0.5995,-6.22898 -1.1632,-9.39146 -0.5571,-3.12561 -1.1366,-8.11971 -1.9304,-11.2363 0,0 -1.3655,-3.07003 -2.7472,-8.49542 -0.6507,-2.55464 -1.462,-4.42078 -2.3012,-7.71549 -0.7052,-2.76945 -0.066,-7.11677 -0.8559,-10.21658 -0.7306,-2.8689 -1.1897,-4.47121 -1.9555,-7.47787 -0.7482,-2.93808 -1.4081,-6.1087 -2.1563,-9.04667 -0.7658,-3.00648 -1.6752,-5.69902 -2.4058,-8.56763 -0.7895,-3.0999 -3.2226,-7.16344 -3.9279,-9.93299 -0.8391,-3.29472 -1.1907,-6.70491 -1.8413,-9.25956 -1.3817,-5.4252 -2.7693,-7.79412 -2.7693,-7.79412 0,0 0.3552,-0.93979 0.3552,-0.93979 m -0.5048,487.18361 c -2.9511,0.7516 -4.3982,2.7939 -7.0464,4.0712 -2.7215,1.3127 -5.3914,2.3272 -7.7487,4.1197 -2.3912,1.8182 -6.4573,4.2329 -8.427,6.4655 -1.9793,2.2432 -2.2766,5.6734 -3.783,8.254 -1.5033,2.5757 -4.2043,4.6008 -5.1895,7.4319 -0.9766,2.8068 0.2834,5.6956 -0.1377,8.6748 -0.4141,2.9289 -0.8252,6.4616 -0.6581,9.4818 0.1624,2.9346 -1.0024,4.7533 -0.2507,7.7047 0.753,2.9571 3.2414,7.0419 4.5032,9.7054 1.2979,2.7399 3.234,4.1677 4.9976,6.5521 1.7935,2.425 1.8842,4.7448 4.0826,6.7546 2.2184,2.0281 5.8662,3.095 8.4175,4.6512 2.5582,1.5605 4.5322,2.9485 7.3449,3.9849 2.8016,1.0323 6.8658,1.9569 9.8405,2.42 2.9341,0.4568 4.2838,1.6425 7.3096,1.498 2.9444,-0.1405 6.6473,0.1049 9.6072,-0.6496 2.9612,-0.7541 5.6778,-3.714 8.33,-4.9969 2.7285,-1.32 4.611,-2.0631 6.9696,-3.8662 2.3924,-1.8288 4.6423,-3.4212 6.609,-5.6668 1.9758,-2.2561 4.9716,-6.009 6.4718,-8.6036 1.496,-2.5877 1.896,-5.2156 2.8732,-8.0583 0.9685,-2.8173 1.2459,-5.1701 1.6598,-8.158 0.4072,-2.9378 2.304,-5.0702 2.1326,-8.0971 -0.1667,-2.9438 -1.6091,-7.4899 -2.3624,-10.4476 -0.7517,-2.9516 -1.626,-5.7824 -2.8868,-8.4381 -1.2971,-2.7324 -2.46,-5.2357 -4.2236,-7.6105 -1.7938,-2.4158 -4.3823,-2.7203 -6.5819,-4.7191 -2.2187,-2.016 -4.2661,-3.7912 -6.8185,-5.3348 -2.5571,-1.5462 -6.3776,-4.0295 -9.1898,-5.0525 -2.7974,-1.0178 -5.6549,-1.2144 -8.6259,-1.6663 -2.9273,-0.445 -5.5898,-1.7567 -8.6098,-1.6061 -2.9355,0.1461 -5.5765,0.4224 -8.5296,1.1744 0,0 0.3472,-0.04 0.3472,-0.04 m 4.6565,15.6506 c 3.2066,-0.8166 6.1546,-0.4589 9.2812,-0.2455 3.2407,0.221 6.6475,0.4031 9.5953,1.6105 2.9667,1.2149 3.7616,2.557 6.2176,4.6464 2.4134,2.0531 4.536,4.9763 6.2509,7.7543 1.6402,2.6572 4.8817,5.302 5.7002,8.5162 0.821,3.2235 0.4923,7.4386 0.3287,10.5696 -0.1712,3.2721 -0.9391,4.5534 -2.066,7.5254 -1.1485,3.0287 -2.3368,7.52 -4.3499,10.0238 -2.0064,2.4955 -5.2013,2.969 -7.9383,4.7294 -2.6481,1.7033 -4.6606,4.5189 -7.8747,5.3375 -3.2068,0.8167 -7.0915,-0.4105 -10.2355,-0.6458 -3.2392,-0.2422 -5.6936,0.4031 -8.6502,-0.8319 -2.962,-1.2371 -6.7148,-4.3733 -9.1732,-6.4803 -2.4133,-2.0683 -3.5841,-3.0167 -5.3019,-5.8027 -1.6454,-2.6687 -3.2999,-5.2746 -4.1199,-8.4944 -0.8178,-3.211 -0.963,-6.5209 -0.7888,-9.6392 0.1819,-3.2562 0.3076,-8.187 1.4482,-11.1435 1.1598,-3.0068 1.9765,-4.1322 3.9967,-6.6174 2.0105,-2.4735 5.9024,-5.9755 8.6342,-7.7216 2.6439,-1.6898 5.3964,-1.4884 8.5956,-2.3031 0,0 -0.7329,0.1475 -0.7329,0.1475"
       style="color:#000000;font-style:normal;font-variant:normal;font-weight:normal;font-stretch:normal;font-size:medium;line-height:normal;font-family:sans-serif;text-indent:0;text-align:start;text-decoration:none;text-decoration-line:none;text-decoration-style:solid;text-decoration-color:#000000;letter-spacing:normal;word-spacing:normal;text-transform:none;direction:ltr;block-progression:tb;writing-mode:lr-tb;baseline-shift:baseline;text-anchor:start;white-space:normal;clip-rule:nonzero;display:inline;overflow:visible;visibility:visible;opacity:1;isolation:auto;mix-blend-mode:normal;color-interpolation:sRGB;color-interpolation-filters:linearRGB;solid-color:#000000;solid-opacity:1;fill:#d71c2e;fill-opacity:1;fill-rule:nonzero;stroke:none;stroke-width:1;stroke-linecap:butt;stroke-linejoin:miter;stroke-miterlimit:4;stroke-dasharray:none;stroke-dashoffset:0;stroke-opacity:1;color-rendering:auto;image-rendering:auto;shape-rendering:auto;text-rendering:auto;enable-background:accumulate" />
    <g
       id="g4246">
      <path
         d="m 1139.9037,530.45347 1.8311,-133.8501 q 0,-88.25684 -9.7046,-133.8501 5.8594,-8.42285 14.4653,-8.42285 13.916,0 25.2686,6.22559 11.5356,6.22558 18.6767,16.47949 14.8316,21.42334 14.8316,48.88916 0,27.46582 -11.9019,49.98779 -11.9018,22.33887 -34.9731,34.79004 0,0 2.9297,116.82129 0,15.56396 -12.4512,15.56396 -4.5776,0 -6.7749,-3.84521 -2.1973,-4.02832 -2.1973,-8.78906 z m 17.5782,-137.87842 q 28.5644,-26.7334 28.5644,-63.5376 l 0,-0.18311 q 0,-21.05712 -5.1269,-29.47998 -2.5635,-4.02832 -4.2115,-6.22558 -1.4648,-2.38037 -6.2256,-6.22559 -5.6762,-4.57763 -17.395,-13.00049 0,19.77539 2.1973,59.32618 2.1973,39.55078 2.1973,59.32617 z"
         style="font-style:normal;font-variant:normal;font-weight:bold;font-stretch:condensed;font-size:375px;line-height:125%;font-family:Amatic;-inkscape-font-specification:'Amatic Bold Condensed';text-align:start;letter-spacing:0px;word-spacing:0px;text-anchor:start;fill:#d71c2e;fill-opacity:1;stroke:none;stroke-width:1px;stroke-linecap:butt;stroke-linejoin:miter;stroke-opacity:1"
         id="path4210"
         inkscape:connector-curvature="0" />
      <path
         d="m 1279.9794,521.11509 q 0,25.08545 -12.2681,25.08545 -6.7749,0 -10.437,-8.23975 4.2115,-8.23975 4.2115,-63.5376 0,-10.0708 -2.0142,-28.56445 -2.0142,-18.49365 -2.3804,-26.36719 l 0,-9.70459 q -0.7324,-1.64795 -11.7187,-29.66308 -24.9024,-62.80518 -24.9024,-74.89014 l 0,-2.01416 8.4229,-6.22559 q 11.5356,0.18311 27.4658,58.04444 6.958,25.26855 6.958,25.45166 1.4649,-4.21143 5.8594,-28.01514 11.1694,-60.79102 23.4375,-60.79102 3.479,0 6.2256,2.19727 2.9297,2.19727 2.9297,5.67627 0,18.67676 -10.8033,54.38232 -10.6201,35.52247 -10.9863,54.19922 l 0,112.97608 z"
         style="font-style:normal;font-variant:normal;font-weight:bold;font-stretch:condensed;font-size:375px;line-height:125%;font-family:Amatic;-inkscape-font-specification:'Amatic Bold Condensed';text-align:start;letter-spacing:0px;word-spacing:0px;text-anchor:start;fill:#d71c2e;fill-opacity:1;stroke:none;stroke-width:1px;stroke-linecap:butt;stroke-linejoin:miter;stroke-opacity:1"
         id="path4212"
         inkscape:connector-curvature="0" />
      <path
         d="m 1340.9535,358.15122 -3.2959,26.18408 0,8.97217 q 0,43.5791 1.8311,57.67822 2.0142,14.09912 4.0283,25.26856 2.0142,11.16943 5.127,19.04297 3.2959,7.87353 7.6904,14.83154 8.7891,13.91601 24.353,13.91601 6.4087,0 15.9302,-6.59179 9.5215,-6.7749 14.4653,-6.7749 4.9439,0 10.6201,5.67626 0,18.85987 -21.4233,26.91651 -10.6201,3.84521 -23.0713,3.84521 -12.4512,0 -21.2402,-5.12695 -8.7891,-4.94385 -14.6485,-12.81738 -5.8593,-8.05664 -10.2539,-20.50781 -4.3945,-12.45118 -6.958,-24.71924 -2.1972,-12.45117 -3.6621,-28.56446 -2.1972,-27.09961 -2.3803,-59.32617 l 0.3662,-44.86084 q 0,-21.42334 2.5634,-34.60693 -1.0986,-6.04248 -1.0986,-11.71875 0,-23.07129 17.2119,-36.6211 17.2119,-13.73291 42.4805,-13.73291 8.9722,0 17.5781,5.12696 8.606,4.94385 8.606,13.18359 0,4.02832 -3.1128,6.22559 -3.1128,2.19726 -10.6201,2.19726 -7.3243,0 -10.0708,-4.57763 l 0,0.1831 -5.127,0 0,-0.91553 q -21.7895,0 -29.6631,13.54981 -7.3242,12.45117 -7.3242,42.84668 l 1.0986,25.81787 z"
         style="font-style:normal;font-variant:normal;font-weight:bold;font-stretch:condensed;font-size:375px;line-height:125%;font-family:Amatic;-inkscape-font-specification:'Amatic Bold Condensed';text-align:start;letter-spacing:0px;word-spacing:0px;text-anchor:start;fill:#d71c2e;fill-opacity:1;stroke:none;stroke-width:1px;stroke-linecap:butt;stroke-linejoin:miter;stroke-opacity:1"
         id="path4214"
         inkscape:connector-curvature="0" />
      <path
         d="m 1437.4501,426.44956 0.3662,-14.28223 q 0,-1.83105 -0.5493,-1.83105 l 0,-6.7749 q 0,-58.95996 6.7749,-83.86231 5.6763,-21.05713 10.9863,-26.00098 5.3101,-4.94384 10.4371,-4.94384 43.5791,0 60.0585,43.94531 9.5215,25.26855 9.5215,62.25586 l 0,2.74658 0.7325,42.48047 q 0,107.84912 -49.9878,107.84912 -20.691,0 -31.6773,-22.88818 -10.437,-21.97266 -12.8174,-43.21289 -3.8452,-32.04346 -3.8452,-55.48096 z m 22.1558,-51.26953 -1.8311,34.60693 q 0,54.38233 8.7891,94.84863 9.3384,23.62061 17.7612,27.83204 6.7749,0 12.2681,-5.49317 5.4931,-5.49316 8.6059,-14.64844 3.2959,-9.33837 5.4932,-19.59228 2.0142,-10.0708 3.1128,-21.60645 1.8311,-19.95849 1.8311,-34.05761 0,-14.09912 -2.5635,-43.21289 -2.3804,-29.11377 -2.3804,-43.396 l 0,-6.5918 q -0.3662,-13.73291 -8.9722,-24.35302 -8.6059,-10.80323 -21.9726,-10.80323 -12.8174,0 -17.0288,14.46534 -3.479,12.08496 -3.479,29.84619 l 0.3662,22.15576 z"
         style="font-style:normal;font-variant:normal;font-weight:bold;font-stretch:condensed;font-size:375px;line-height:125%;font-family:Amatic;-inkscape-font-specification:'Amatic Bold Condensed';text-align:start;letter-spacing:0px;word-spacing:0px;text-anchor:start;fill:#d71c2e;fill-opacity:1;stroke:none;stroke-width:1px;stroke-linecap:butt;stroke-linejoin:miter;stroke-opacity:1"
         id="path4216"
         inkscape:connector-curvature="0" />
      <path
         d="m 1559.2153,389.27915 2.1972,-69.94629 q 0,-17.39502 13.7329,-27.64893 l 0,2.38038 q 1.4649,-0.91553 2.7466,-0.91553 8.7891,0 21.9727,30.39551 13.1836,30.2124 23.8037,66.46728 10.6201,36.25488 21.0571,73.24219 10.6201,36.8042 13.1836,43.21289 7.5073,-78.55225 7.5073,-190.24658 l -0.5493,-10.0708 q 0,-11.16944 9.3384,-11.16944 5.31,0 7.8735,4.39453 2.7466,4.39454 2.7466,10.25391 l 0,28.38135 q -0.3662,44.12842 -4.0283,117.91992 -3.479,73.6084 -9.5215,83.12988 -10.2539,3.1128 -14.2822,3.1128 -3.8452,0 -6.0425,-2.56348 -2.0142,-2.74658 -3.2959,-8.23975 -1.2817,-5.49316 -2.1973,-7.32422 l 0.1831,-1.64794 q 0,-13.91602 -26.9165,-88.43995 -26.9165,-74.52392 -39.0014,-102.53906 l 0,188.78174 q 0.3662,0.73242 1.4648,2.56348 2.3804,4.02832 2.3804,7.50732 0,3.479 -3.479,6.95801 -3.2959,3.479 -7.8736,3.479 -12.268,0 -12.268,-22.88818 l -0.7324,-128.54004 z"
         style="font-style:normal;font-variant:normal;font-weight:bold;font-stretch:condensed;font-size:375px;line-height:125%;font-family:Amatic;-inkscape-font-specification:'Amatic Bold Condensed';text-align:start;letter-spacing:0px;word-spacing:0px;text-anchor:start;fill:#d71c2e;fill-opacity:1;stroke:none;stroke-width:1px;stroke-linecap:butt;stroke-linejoin:miter;stroke-opacity:1"
         id="path4218"
         inkscape:connector-curvature="0" />
      <path
         d="m 1773.8149,358.15122 -3.2959,26.18408 0,8.97217 q 0,43.5791 1.831,57.67822 2.0142,14.09912 4.0283,25.26856 2.0142,11.16943 5.127,19.04297 3.2959,7.87353 7.6904,14.83154 8.7891,13.91601 24.353,13.91601 6.4087,0 15.9302,-6.59179 9.5215,-6.7749 14.4654,-6.7749 4.9438,0 10.6201,5.67626 0,18.85987 -21.4234,26.91651 -10.6201,3.84521 -23.0713,3.84521 -12.4511,0 -21.2402,-5.12695 -8.7891,-4.94385 -14.6484,-12.81738 -5.8594,-8.05664 -10.2539,-20.50781 -4.3946,-12.45118 -6.958,-24.71924 -2.1973,-12.45117 -3.6621,-28.56446 -2.1973,-27.09961 -2.3804,-59.32617 l 0.3662,-44.86084 q 0,-21.42334 2.5635,-34.60693 -1.0987,-6.04248 -1.0987,-11.71875 0,-23.07129 17.2119,-36.6211 17.212,-13.73291 42.4805,-13.73291 8.9722,0 17.5781,5.12696 8.606,4.94385 8.606,13.18359 0,4.02832 -3.1128,6.22559 -3.1128,2.19726 -10.6201,2.19726 -7.3242,0 -10.0708,-4.57763 l 0,0.1831 -5.127,0 0,-0.91553 q -21.7895,0 -29.6631,13.54981 -7.3242,12.45117 -7.3242,42.84668 l 1.0987,25.81787 z"
         style="font-style:normal;font-variant:normal;font-weight:bold;font-stretch:condensed;font-size:375px;line-height:125%;font-family:Amatic;-inkscape-font-specification:'Amatic Bold Condensed';text-align:start;letter-spacing:0px;word-spacing:0px;text-anchor:start;fill:#d71c2e;fill-opacity:1;stroke:none;stroke-width:1px;stroke-linecap:butt;stroke-linejoin:miter;stroke-opacity:1"
         id="path4220"
         inkscape:connector-curvature="0" />
      <path
         d="m 1886.4247,258.54184 35.3394,-3.84521 q 4.3945,0 7.3242,3.2959 2.9297,3.11279 2.9297,7.50732 0,98.14453 -41.565,260.00977 l 19.7754,-1.46485 q 19.7754,0 19.7754,11.53565 l 0,1.64795 -5.8593,5.85937 -46.3257,1.46485 q -7.1411,0 -10.6201,-9.15528 8.6059,-13.73291 19.226,-71.22802 10.8032,-57.67823 17.5782,-111.32813 6.958,-53.6499 8.4228,-77.45361 -12.8174,1.83105 -21.4233,1.83105 -20.3247,0 -20.3247,-11.90185 l 0,-1.64795 5.1269,-6.22559 0,-0.1831 q 4.9439,1.28173 10.6201,1.28173 z"
         style="font-style:normal;font-variant:normal;font-weight:bold;font-stretch:condensed;font-size:375px;line-height:125%;font-family:Amatic;-inkscape-font-specification:'Amatic Bold Condensed';text-align:start;letter-spacing:0px;word-spacing:0px;text-anchor:start;fill:#d71c2e;fill-opacity:1;stroke:none;stroke-width:1px;stroke-linecap:butt;stroke-linejoin:miter;stroke-opacity:1"
         id="path4222"
         inkscape:connector-curvature="0" />
    </g>
    <g
       transform="translate(-776.4117,-444.5292)"
       style="font-style:normal;font-variant:normal;font-weight:bold;font-stretch:condensed;font-size:375px;line-height:125%;font-family:Amatic;-inkscape-font-specification:'Amatic Bold Condensed';letter-spacing:0px;word-spacing:0px;fill:#d71c2e;fill-opacity:1;stroke:none;stroke-width:1px;stroke-linecap:butt;stroke-linejoin:miter;stroke-opacity:1"
       id="text4216">
      <path
         d="m 1979.3037,1356.8704 -57.1289,3.479 q -5.3101,0 -9.5215,-3.1128 -4.2114,-3.1128 -4.2114,-8.2398 l 0,-1.4648 q 7.8735,-9.3384 13.1836,-24.5362 5.31,-15.3808 7.5073,-20.1416 21.4234,-47.4243 31.8604,-86.975 10.437,-39.5508 10.437,-85.5103 0,-45.9595 -17.9444,-47.4243 -6.2255,3.2959 -8.4228,17.9443 -2.1973,13.7329 -11.1694,13.7329 -8.9722,0 -8.9722,-11.5356 0,-18.3106 10.6201,-29.6631 5.8594,-6.2256 13.5498,-6.2256 l 0,-0.1831 q 19.4092,0 28.1983,12.085 6.4086,8.9721 8.0566,16.1132 1.831,7.1412 2.3804,11.3526 0.7324,4.2114 1.0986,10.8032 0.5493,9.8877 0.5493,28.7476 0,18.8598 -6.5918,49.0722 -6.5918,30.2124 -14.4653,51.2696 -7.6904,20.874 -19.4092,50.354 -11.7187,29.4799 -16.8457,45.0439 22.7051,-3.8452 44.3115,-3.8452 7.8736,5.6763 7.8736,10.2539 0,4.3945 -4.9439,8.606 z"
         style="font-style:normal;font-variant:normal;font-weight:bold;font-stretch:condensed;font-size:375px;font-family:Amatic;-inkscape-font-specification:'Amatic Bold Condensed';text-align:start;text-anchor:start;fill:#1a5295;fill-opacity:1"
         id="path4201"
         inkscape:connector-curvature="0" />
      <path
         d="m 2036.9819,1176.3284 3.8452,36.6211 q 0.1832,57.1289 8.2398,97.5952 5.8594,28.7475 17.395,28.7475 5.4932,0 9.7046,-11.1694 4.3945,-11.1694 6.2256,-27.0996 3.6621,-29.6631 3.479,-46.1426 0,-16.6626 -0.5493,-31.8603 -0.5493,-15.1978 -1.8311,-35.8887 -1.2817,-20.6909 -4.2114,-38.0859 -2.9297,-17.3951 -7.1411,-33.1421 -8.9722,-33.6914 -26.9165,-36.2549 -5.8594,4.9438 -7.8736,9.7046 -1.831,4.7607 -1.831,12.8174 l 1.4648,74.1577 z m -19.4091,-42.4805 q 0,-45.9595 16.1132,-57.6782 6.5918,-4.7608 15.7471,-4.7608 53.833,0 53.833,190.7959 0,94.1162 -40.2832,94.1162 -29.6631,0 -40.1001,-91.7358 -5.31,-46.5088 -5.31,-130.7373 z"
         style="font-style:normal;font-variant:normal;font-weight:bold;font-stretch:condensed;font-size:375px;font-family:Amatic;-inkscape-font-specification:'Amatic Bold Condensed';text-align:start;text-anchor:start;fill:#1a5295;fill-opacity:1"
         id="path4203"
         inkscape:connector-curvature="0" />
      <path
         d="m 2164.6064,1359.0676 -11.1694,0.1831 q -6.2256,0 -8.9722,-1.831 -2.7465,-2.0142 -2.7465,-7.3242 0,-5.3101 1.6479,-6.7749 1.8311,-1.4649 8.9722,-1.4649 7.3242,0 7.3242,-6.2256 0,-36.8042 -5.6763,-109.6801 -5.6762,-72.876 -5.6762,-107.8492 l 0.5493,-13.7329 q 0,-17.5781 -13.0005,-17.5781 l -8.606,0.3662 q -10.6201,0 -10.6201,-8.0566 0,-9.8877 30.2124,-9.8877 15.7471,0 19.2261,6.2256 -2.1973,10.2539 -2.1973,18.8598 0,8.4229 2.7466,31.3111 2.9297,22.8881 2.9297,43.396 0,20.5078 4.0283,79.8339 4.0283,59.1431 4.0283,88.8062 l 0,2.3804 q 8.7891,-1.0987 13.7329,-1.0987 l 0,-0.1831 q 15.9302,0 15.9302,9.3384 0,10.9863 -42.6636,10.9863 z"
         style="font-style:normal;font-variant:normal;font-weight:bold;font-stretch:condensed;font-size:375px;font-family:Amatic;-inkscape-font-specification:'Amatic Bold Condensed';text-align:start;text-anchor:start;fill:#1a5295;fill-opacity:1"
         id="path4205"
         inkscape:connector-curvature="0" />
      <path
         d="m 2250.8491,1364.1946 -6.4087,0.1831 q -20.5078,0 -20.5078,-10.6201 0,-4.2115 3.479,-6.2256 3.6621,-2.1973 8.606,-2.1973 4.9438,0 9.1553,3.1128 8.9721,-3.1128 14.0991,-20.5078 5.31,-17.395 5.31,-28.7476 0,-11.5356 -0.1831,-17.5781 0,-6.2256 -0.3662,-15.9302 -0.3662,-9.7046 -1.2817,-15.9301 -0.7324,-6.2256 -2.1973,-14.4654 -1.4648,-8.2397 -3.6621,-13.3667 -2.0142,-5.31 -5.3101,-11.1694 -3.2959,-5.4932 -7.3242,-8.7891 -9.5215,-7.3242 -22.3388,-7.5073 -8.9722,0 -11.5357,-7.1411 -2.1973,-6.0425 -2.1973,-14.2822 l 2.0142,-19.043 q 0,-23.4375 -9.1553,-78.3691 l 6.4087,-6.5918 30.5786,0 q 15.564,0 15.564,9.5214 l 0,2.0142 -6.958,5.6763 -9.3384,0 0,-1.0987 -15.9302,0 q 0.9156,23.6207 7.3243,88.9893 0.9155,0.1831 7.1411,0.7324 6.4087,0.7324 8.9721,1.0987 9.3384,1.6479 14.2823,4.9438 8.6059,5.8594 14.2822,26.3672 9.1553,33.1421 9.1553,70.8618 0,32.0435 -1.8311,39.3677 -1.831,7.3242 -4.2114,14.0991 -2.1973,6.958 -5.4932,11.7188 -7.6904,11.3525 -20.1416,20.874 z"
         style="font-style:normal;font-variant:normal;font-weight:bold;font-stretch:condensed;font-size:375px;font-family:Amatic;-inkscape-font-specification:'Amatic Bold Condensed';text-align:start;text-anchor:start;fill:#1a5295;fill-opacity:1"
         id="path4207"
         inkscape:connector-curvature="0" />
    </g>
  </g>
</svg>
